<svg width="4828" height="1551" viewBox="0 0 4828 1551" fill="none" xmlns="http://www.w3.org/2000/svg">
<g clip-path="url(#clip0_1036_315)">
<path fill-rule="evenodd" clip-rule="evenodd" d="M3473 4.5L4823 4L4822 882L4823 1546H3806V1042.5H3473V1172H3359.5V1257.5H2709.5V1157H2421V970H1932.5V1542H0V2H2384.5V770.5H3029V140H3413V770H3471V785H3473V4.5ZM3251 318H3202V767H3251V318Z" fill="#CCCCCC"/>
<path d="M3474 1040H3805V1547" stroke="black" stroke-width="8"/>
<path d="M2421 953.5V967H1930.5L1935.5 1549H4V4H2384V771H2421V791" stroke="black" stroke-width="8"/>
<path d="M2319.59 789.345L2421 789.345" stroke="black" stroke-width="6"/>
<path d="M2421 889C2364.67 889 2319 843.333 2319 787" stroke="black" stroke-width="2"/>
<path d="M2357.37 951.529L2421 951.529" stroke="black" stroke-width="6"/>
<path d="M2421 889C2385.65 889 2357 917.654 2357 953" stroke="black" stroke-width="2"/>
<path d="M3574.41 974.655L3473 974.655" stroke="black" stroke-width="6"/>
<path d="M3473 875C3529.33 875 3575 920.667 3575 977" stroke="black" stroke-width="2"/>
<path d="M3536.63 812.471L3473 812.471" stroke="black" stroke-width="6"/>
<path d="M3473 875C3508.35 875 3537 846.346 3537 811" stroke="black" stroke-width="2"/>
<path d="M3801 1547H4824.5C4824.5 944.812 4824.5 606.188 4824.5 4H3473V814M3473 972.5V1176.5" stroke="black" stroke-width="8"/>
<path d="M2421 771H3029.5V144H3414.5V771H3473M3473 1172.5H3359V1257.5H2709V1158.5H2421L2421 949.5" stroke="black" stroke-width="8"/>
<rect x="3202" y="322" width="49" height="449" stroke="black" stroke-width="8"/>
<rect x="3030" y="743.646" width="173" height="30.3547" stroke="black" stroke-width="2"/>
<rect x="3030" y="623.546" width="173" height="30.3547" stroke="black" stroke-width="2"/>
<rect x="3030" y="682.936" width="173" height="30.3547" stroke="black" stroke-width="2"/>
<rect x="3030" y="562.837" width="173" height="30.3547" stroke="black" stroke-width="2"/>
<rect x="3030" y="713.291" width="173" height="30.3547" stroke="black" stroke-width="2"/>
<rect x="3030" y="593.192" width="173" height="30.3547" stroke="black" stroke-width="2"/>
<rect x="3030" y="653.901" width="173" height="29.0349" stroke="black" stroke-width="2"/>
<rect x="3030" y="532.482" width="173" height="30.3547" stroke="black" stroke-width="2"/>
<rect x="3030" y="502.128" width="173" height="30.3547" stroke="black" stroke-width="2"/>
<rect x="3030" y="380.709" width="173" height="30.3547" stroke="black" stroke-width="2"/>
<rect x="3030" y="441.418" width="173" height="30.3547" stroke="black" stroke-width="2"/>
<rect x="3030" y="320" width="173" height="30.3547" stroke="black" stroke-width="2"/>
<rect x="3030" y="471.773" width="173" height="30.3547" stroke="black" stroke-width="2"/>
<rect x="3030" y="350.354" width="173" height="30.3547" stroke="black" stroke-width="2"/>
<rect x="3030" y="411.064" width="173" height="30.3547" stroke="black" stroke-width="2"/>
<rect x="3252" y="743.646" width="162" height="30.3547" stroke="black" stroke-width="2"/>
<rect x="3252" y="623.547" width="162" height="30.3547" stroke="black" stroke-width="2"/>
<rect x="3252" y="682.936" width="162" height="30.3547" stroke="black" stroke-width="2"/>
<rect x="3252" y="562.837" width="162" height="30.3547" stroke="black" stroke-width="2"/>
<rect x="3252" y="713.291" width="162" height="30.3547" stroke="black" stroke-width="2"/>
<rect x="3252" y="593.192" width="162" height="30.3547" stroke="black" stroke-width="2"/>
<rect x="3252" y="653.901" width="162" height="29.0349" stroke="black" stroke-width="2"/>
<rect x="3252" y="532.483" width="162" height="30.3547" stroke="black" stroke-width="2"/>
<rect x="3252" y="502.128" width="162" height="30.3547" stroke="black" stroke-width="2"/>
<rect x="3252" y="380.709" width="162" height="30.3547" stroke="black" stroke-width="2"/>
<rect x="3252" y="441.419" width="162" height="30.3547" stroke="black" stroke-width="2"/>
<rect x="3252" y="471.773" width="162" height="30.3547" stroke="black" stroke-width="2"/>
<rect x="3252" y="411.064" width="162" height="30.3547" stroke="black" stroke-width="2"/>
<rect x="1682" y="319.5" width="187.092" height="96.5" stroke="black" stroke-width="4"/>
<rect x="1436" y="319.5" width="187.092" height="96.5" stroke="black" stroke-width="4"/>
<rect x="1682" y="223" width="187.092" height="96.5" stroke="black" stroke-width="4"/>
<rect x="1436" y="223" width="187.092" height="96.5" stroke="black" stroke-width="4"/>
<rect x="1869.09" y="319.5" width="185.908" height="96.5" stroke="black" stroke-width="4"/>
<rect x="1869.09" y="223" width="185.908" height="96.5" stroke="black" stroke-width="4"/>
<rect x="856" y="319.5" width="187.092" height="96.5" stroke="black" stroke-width="4"/>
<rect x="610" y="319.5" width="187.092" height="96.5" stroke="black" stroke-width="4"/>
<rect x="856" y="223" width="187.092" height="96.5" stroke="black" stroke-width="4"/>
<rect x="610" y="223" width="187.092" height="96.5" stroke="black" stroke-width="4"/>
<rect x="1043.09" y="319.5" width="185.908" height="96.5" stroke="black" stroke-width="4"/>
<rect x="1043.09" y="223" width="185.908" height="96.5" stroke="black" stroke-width="4"/>
<rect x="1386" y="727.5" width="187.092" height="96.5" stroke="black" stroke-width="4"/>
<rect x="1386" y="631" width="187.092" height="96.5" stroke="black" stroke-width="4"/>
<rect x="1573.09" y="727.5" width="185.908" height="96.5" stroke="black" stroke-width="4"/>
<rect x="1573.09" y="631" width="185.908" height="96.5" stroke="black" stroke-width="4"/>
<rect x="1372" y="1134.5" width="187.092" height="96.5" stroke="black" stroke-width="4"/>
<rect x="1743" y="1447" width="187" height="97" stroke="black" stroke-width="4"/>
<rect x="1368" y="1447" width="187" height="97" stroke="black" stroke-width="4"/>
<rect x="993" y="1447" width="187" height="97" stroke="black" stroke-width="4"/>
<rect x="618" y="1447" width="187" height="97" stroke="black" stroke-width="4"/>
<rect x="1555" y="1447" width="188" height="97" stroke="black" stroke-width="4"/>
<rect x="1180" y="1447" width="188" height="97" stroke="black" stroke-width="4"/>
<rect x="805" y="1447" width="188" height="97" stroke="black" stroke-width="4"/>
<rect x="430" y="1447" width="188" height="97" stroke="black" stroke-width="4"/>
<rect x="1372" y="1038" width="187.092" height="96.5" stroke="black" stroke-width="4"/>
<rect x="1559.09" y="1134.5" width="185.908" height="96.5" stroke="black" stroke-width="4"/>
<rect x="1559.09" y="1038" width="185.908" height="96.5" stroke="black" stroke-width="4"/>
<rect x="854" y="1134.5" width="187.092" height="96.5" stroke="black" stroke-width="4"/>
<rect x="667" y="1134.5" width="187.092" height="96.5" stroke="black" stroke-width="4"/>
<rect x="480" y="1134.5" width="187.092" height="96.5" stroke="black" stroke-width="4"/>
<rect x="854" y="1038" width="187.092" height="96.5" stroke="black" stroke-width="4"/>
<rect x="667" y="1038" width="187.092" height="96.5" stroke="black" stroke-width="4"/>
<rect x="480" y="1038" width="187.092" height="96.5" stroke="black" stroke-width="4"/>
<rect x="1041.09" y="1134.5" width="185.908" height="96.5" stroke="black" stroke-width="4"/>
<rect x="1041.09" y="1038" width="185.908" height="96.5" stroke="black" stroke-width="4"/>
<rect x="854" y="727.5" width="187.092" height="96.5" stroke="black" stroke-width="4"/>
<rect x="667" y="727.5" width="187.092" height="96.5" stroke="black" stroke-width="4"/>
<rect x="480" y="727.5" width="187.092" height="96.5" stroke="black" stroke-width="4"/>
<rect x="854" y="631" width="187.092" height="96.5" stroke="black" stroke-width="4"/>
<rect x="667" y="631" width="187.092" height="96.5" stroke="black" stroke-width="4"/>
<rect x="480" y="631" width="187.092" height="96.5" stroke="black" stroke-width="4"/>
<rect x="1041.09" y="727.5" width="185.908" height="96.5" stroke="black" stroke-width="4"/>
<rect x="1041.09" y="631" width="185.908" height="96.5" stroke="black" stroke-width="4"/>
<rect x="4186" y="399" width="190" height="97" stroke="black" stroke-width="4"/>
<rect x="4235" y="797" width="188" height="97" stroke="black" stroke-width="4"/>
<rect x="4376" y="1252" width="188" height="97" stroke="black" stroke-width="4"/>
<rect x="3942" y="400" width="187" height="96" stroke="black" stroke-width="4"/>
<rect x="4046" y="797" width="189" height="97" stroke="black" stroke-width="4"/>
<rect x="4187" y="1252" width="189" height="97" stroke="black" stroke-width="4"/>
<rect x="3756" y="400" width="187" height="96" stroke="black" stroke-width="4"/>
<rect x="3858" y="797" width="188" height="97" stroke="black" stroke-width="4"/>
<rect x="3999" y="1252" width="188" height="97" stroke="black" stroke-width="4"/>
<rect x="4186" y="303" width="190" height="96" stroke="black" stroke-width="4"/>
<rect x="4190" y="6" width="172" height="91" stroke="black" stroke-width="4"/>
<rect x="4235" y="701" width="188" height="96" stroke="black" stroke-width="4"/>
<rect x="4581.91" y="579.976" width="188" height="96" transform="rotate(64.2447 4581.91 579.976)" stroke="black" stroke-width="4"/>
<rect x="4655" y="837" width="157" height="79" transform="rotate(90 4655 837)" stroke="black" stroke-width="4"/>
<rect x="4376" y="1156" width="188" height="96" stroke="black" stroke-width="4"/>
<rect x="3942" y="303" width="187" height="97" stroke="black" stroke-width="4"/>
<rect x="3942" y="6" width="187" height="91" stroke="black" stroke-width="4"/>
<rect x="4046" y="701" width="189" height="96" stroke="black" stroke-width="4"/>
<rect x="4187" y="1156" width="189" height="96" stroke="black" stroke-width="4"/>
<rect x="3756" y="303" width="187" height="97" stroke="black" stroke-width="4"/>
<rect x="3755" y="6" width="187" height="91" stroke="black" stroke-width="4"/>
<rect x="3858" y="701" width="188" height="96" stroke="black" stroke-width="4"/>
<rect x="3999" y="1156" width="188" height="96" stroke="black" stroke-width="4"/>
<rect x="4376" y="399" width="188" height="97" stroke="black" stroke-width="4"/>
<rect x="4376" y="303" width="188" height="96" stroke="black" stroke-width="4"/>
<rect x="4362" y="6" width="171" height="91" stroke="black" stroke-width="4"/>
<rect x="150" y="776" width="188" height="188" stroke="black" stroke-width="4"/>
<rect x="49" y="240" width="219" height="77" stroke="black" stroke-width="4"/>
<rect x="191" y="328" width="77" height="157" stroke="black" stroke-width="4"/>
<path d="M848.992 904V901.1L863.492 882.366C865.928 879.292 866.624 877.32 866.624 875C866.624 871.694 864.942 869.664 861.636 869.664C858.736 869.664 856.822 871.578 856.358 875L849.63 873.724C850.036 867.576 855.024 862.936 861.81 862.936C869.524 862.936 873.932 867.866 873.932 874.71C873.932 877.958 872.888 881.148 870.452 884.338L860.534 897.272H874.802V904H848.992ZM897.088 862.936C906.774 862.936 912.052 870.708 912.052 883.7C912.052 896.692 906.774 904.464 897.088 904.464C887.402 904.464 882.124 896.692 882.124 883.7C882.124 870.708 887.402 862.936 897.088 862.936ZM897.088 869.664C891.752 869.664 889.316 874.652 889.316 883.7C889.316 892.748 891.752 897.736 897.088 897.736C902.424 897.736 904.86 892.748 904.86 883.7C904.86 874.652 902.424 869.664 897.088 869.664ZM929.536 863.4H932.726V904H925.418V873.608L917.646 878.248V870.36L929.536 863.4ZM955.874 888.746V882.482H977.508V888.746H955.874ZM1022.86 904L1019.91 894.43H1007.03L1004.07 904H995.951L1009.7 863.4H1017.24L1030.98 904H1022.86ZM1013.47 873.376L1009.18 887.47H1017.76L1013.47 873.376ZM1035.93 874.768H1043.12V879.466C1045.27 876.392 1048.4 874.304 1052.17 874.304C1057.39 874.304 1061.16 877.262 1061.16 883.12V904H1053.97V885.266C1053.97 881.786 1052.23 880.452 1049.79 880.452C1046.31 880.452 1043.12 884.628 1043.12 892.342V904H1035.93V874.768ZM1074.73 883.816L1068.64 882.424C1069.56 877.61 1073.8 874.304 1079.77 874.304C1086.73 874.304 1092.07 877.204 1092.07 886.542V904H1086.15L1085.4 900.288C1083.37 902.782 1080.58 904.464 1076.41 904.464C1071.42 904.464 1067.53 901.39 1067.53 895.59C1067.53 889.79 1072.64 886.02 1080 886.02H1084.88V884.744C1084.88 881.496 1082.44 880.452 1079.77 880.452C1077.74 880.452 1075.65 881.09 1074.73 883.816ZM1075.07 895.474C1075.07 896.866 1076.06 898.316 1078.09 898.316C1081.4 898.316 1084.88 896.054 1084.88 892.284V891.704H1080.06C1076.99 891.704 1075.07 892.864 1075.07 895.474ZM1099.19 862.936H1106.38V904H1099.19V862.936ZM1113.08 889.384C1113.08 880.916 1118.53 874.304 1127.93 874.304C1137.32 874.304 1142.77 880.916 1142.77 889.384C1142.77 897.852 1137.32 904.464 1127.93 904.464C1118.53 904.464 1113.08 897.852 1113.08 889.384ZM1120.62 889.384C1120.62 894.198 1123.29 898.316 1127.93 898.316C1132.57 898.316 1135.23 894.198 1135.23 889.384C1135.23 884.57 1132.57 880.452 1127.93 880.452C1123.29 880.452 1120.62 884.57 1120.62 889.384ZM1149.78 884.164C1149.78 878.074 1154.59 874.304 1160.51 874.304C1162.48 874.304 1164.28 874.768 1165.9 875.58L1171.41 872.68L1174.25 877.436L1170.08 879.524C1170.83 880.858 1171.24 882.424 1171.24 884.164C1171.24 890.312 1166.42 893.908 1160.51 893.908C1159 893.908 1157.55 893.676 1156.27 893.27C1155.4 893.792 1154.88 894.546 1154.88 895.474C1154.88 896.866 1155.87 897.62 1157.61 897.62H1163.58C1169.73 897.62 1173.85 900.578 1173.85 906.204C1173.85 913.396 1167.06 916.296 1160.57 916.296C1153.08 916.296 1147.34 913.048 1147.34 906.668C1147.34 904.29 1148.21 902.26 1149.72 900.868C1148.79 899.766 1148.21 898.2 1148.21 896.344C1148.21 893.56 1149.66 891.472 1151.81 890.196C1150.53 888.63 1149.78 886.6 1149.78 884.164ZM1161.96 903.652H1158.01C1156.8 903.652 1155.69 903.594 1154.65 903.42C1154.19 904.116 1154.01 904.986 1154.01 906.088C1154.01 908.872 1156.8 910.264 1160.57 910.264C1163.99 910.264 1166.66 909.278 1166.66 906.668C1166.66 904.232 1164.68 903.652 1161.96 903.652ZM1156.51 884.164C1156.51 886.542 1158.19 888.108 1160.51 888.108C1162.83 888.108 1164.51 886.542 1164.51 884.164C1164.51 881.728 1162.83 880.104 1160.51 880.104C1158.19 880.104 1156.51 881.728 1156.51 884.164ZM1198.71 883.816L1192.62 882.424C1193.55 877.61 1197.78 874.304 1203.76 874.304C1210.72 874.304 1216.05 877.204 1216.05 886.542V904H1210.14L1209.38 900.288C1207.35 902.782 1204.57 904.464 1200.39 904.464C1195.41 904.464 1191.52 901.39 1191.52 895.59C1191.52 889.79 1196.62 886.02 1203.99 886.02H1208.86V884.744C1208.86 881.496 1206.43 880.452 1203.76 880.452C1201.73 880.452 1199.64 881.09 1198.71 883.816ZM1199.06 895.474C1199.06 896.866 1200.05 898.316 1202.08 898.316C1205.38 898.316 1208.86 896.054 1208.86 892.284V891.704H1204.05C1200.97 891.704 1199.06 892.864 1199.06 895.474ZM1222.79 874.768H1229.98V879.466C1232.12 876.392 1235.26 874.304 1239.03 874.304C1244.25 874.304 1248.02 877.262 1248.02 883.12V904H1240.82V885.266C1240.82 881.786 1239.08 880.452 1236.65 880.452C1233.17 880.452 1229.98 884.628 1229.98 892.342V904H1222.79V874.768ZM1254.45 889.384C1254.45 880.394 1258.98 874.304 1267.79 874.304C1270.75 874.304 1273.59 875.812 1274.87 877.436V862.936H1282.06V904H1274.87V900.984C1274.06 902.492 1271.39 904.464 1267.79 904.464C1258.98 904.464 1254.45 898.374 1254.45 889.384ZM1261.99 889.384C1261.99 895.184 1265.01 898.316 1268.78 898.316C1272.55 898.316 1275.51 895.184 1275.51 889.384C1275.51 883.584 1272.55 880.452 1268.78 880.452C1265.01 880.452 1261.99 883.584 1261.99 889.384ZM1318.99 904H1306.29V863.4H1318.99C1328.56 863.4 1337.9 869.49 1337.9 883.7C1337.9 897.91 1328.56 904 1318.99 904ZM1313.83 897.04H1316.61C1323.11 897.04 1330.24 894.488 1330.24 883.7C1330.24 872.912 1323.11 870.36 1316.61 870.36H1313.83V897.04ZM1343.16 866.358C1343.16 863.748 1345.13 861.718 1347.8 861.718C1350.47 861.718 1352.44 863.748 1352.44 866.358C1352.44 868.968 1350.47 870.998 1347.8 870.998C1345.13 870.998 1343.16 868.968 1343.16 866.358ZM1344.21 874.768H1351.4V904H1344.21V874.768ZM1359.74 884.164C1359.74 878.074 1364.56 874.304 1370.47 874.304C1372.45 874.304 1374.24 874.768 1375.87 875.58L1381.38 872.68L1384.22 877.436L1380.04 879.524C1380.8 880.858 1381.2 882.424 1381.2 884.164C1381.2 890.312 1376.39 893.908 1370.47 893.908C1368.97 893.908 1367.52 893.676 1366.24 893.27C1365.37 893.792 1364.85 894.546 1364.85 895.474C1364.85 896.866 1365.83 897.62 1367.57 897.62H1373.55C1379.7 897.62 1383.81 900.578 1383.81 906.204C1383.81 913.396 1377.03 916.296 1370.53 916.296C1363.05 916.296 1357.31 913.048 1357.31 906.668C1357.31 904.29 1358.18 902.26 1359.69 900.868C1358.76 899.766 1358.18 898.2 1358.18 896.344C1358.18 893.56 1359.63 891.472 1361.77 890.196C1360.5 888.63 1359.74 886.6 1359.74 884.164ZM1371.92 903.652H1367.98C1366.76 903.652 1365.66 903.594 1364.62 903.42C1364.15 904.116 1363.98 904.986 1363.98 906.088C1363.98 908.872 1366.76 910.264 1370.53 910.264C1373.95 910.264 1376.62 909.278 1376.62 906.668C1376.62 904.232 1374.65 903.652 1371.92 903.652ZM1366.47 884.164C1366.47 886.542 1368.15 888.108 1370.47 888.108C1372.79 888.108 1374.48 886.542 1374.48 884.164C1374.48 881.728 1372.79 880.104 1370.47 880.104C1368.15 880.104 1366.47 881.728 1366.47 884.164ZM1388.25 866.358C1388.25 863.748 1390.22 861.718 1392.89 861.718C1395.56 861.718 1397.53 863.748 1397.53 866.358C1397.53 868.968 1395.56 870.998 1392.89 870.998C1390.22 870.998 1388.25 868.968 1388.25 866.358ZM1389.29 874.768H1396.48V904H1389.29V874.768ZM1420.35 897.62L1422.04 903.42C1420.41 904.174 1418.85 904.464 1417.28 904.464C1410.67 904.464 1406.55 900.926 1406.55 893.676V880.916H1402.03V874.768H1406.55V867.46L1413.74 862.936V874.768H1421.46V880.916H1413.74V893.56C1413.74 897.156 1415.13 898.316 1417.57 898.316C1418.56 898.316 1419.37 898.142 1420.35 897.62ZM1433.43 883.816L1427.34 882.424C1428.27 877.61 1432.5 874.304 1438.48 874.304C1445.44 874.304 1450.77 877.204 1450.77 886.542V904H1444.86L1444.1 900.288C1442.07 902.782 1439.29 904.464 1435.11 904.464C1430.12 904.464 1426.24 901.39 1426.24 895.59C1426.24 889.79 1431.34 886.02 1438.71 886.02H1443.58V884.744C1443.58 881.496 1441.14 880.452 1438.48 880.452C1436.45 880.452 1434.36 881.09 1433.43 883.816ZM1433.78 895.474C1433.78 896.866 1434.76 898.316 1436.79 898.316C1440.1 898.316 1443.58 896.054 1443.58 892.284V891.704H1438.77C1435.69 891.704 1433.78 892.864 1433.78 895.474ZM1457.9 862.936H1465.09V904H1457.9V862.936ZM1489.12 863.4H1496.66V897.04H1513.89V904H1489.12V863.4ZM1524.11 883.816L1518.02 882.424C1518.95 877.61 1523.18 874.304 1529.16 874.304C1536.12 874.304 1541.45 877.204 1541.45 886.542V904H1535.54L1534.78 900.288C1532.75 902.782 1529.97 904.464 1525.79 904.464C1520.81 904.464 1516.92 901.39 1516.92 895.59C1516.92 889.79 1522.02 886.02 1529.39 886.02H1534.26V884.744C1534.26 881.496 1531.83 880.452 1529.16 880.452C1527.13 880.452 1525.04 881.09 1524.11 883.816ZM1524.46 895.474C1524.46 896.866 1525.45 898.316 1527.48 898.316C1530.78 898.316 1534.26 896.054 1534.26 892.284V891.704H1529.45C1526.37 891.704 1524.46 892.864 1524.46 895.474ZM1576.25 889.384C1576.25 898.374 1571.72 904.464 1562.91 904.464C1559.31 904.464 1556.64 902.492 1555.83 900.984V904H1548.64V862.936H1555.83V877.436C1557.11 875.812 1559.95 874.304 1562.91 874.304C1571.72 874.304 1576.25 880.394 1576.25 889.384ZM1568.71 889.384C1568.71 883.584 1565.69 880.452 1561.92 880.452C1558.15 880.452 1555.19 883.584 1555.19 889.384C1555.19 895.184 1558.15 898.316 1561.92 898.316C1565.69 898.316 1568.71 895.184 1568.71 889.384Z" fill="black"/>
<path d="M3744.83 558V555.1L3759.33 536.366C3761.76 533.292 3762.46 531.32 3762.46 529C3762.46 525.694 3760.78 523.664 3757.47 523.664C3754.57 523.664 3752.66 525.578 3752.19 529L3745.47 527.724C3745.87 521.576 3750.86 516.936 3757.65 516.936C3765.36 516.936 3769.77 521.866 3769.77 528.71C3769.77 531.958 3768.72 535.148 3766.29 538.338L3756.37 551.272H3770.64V558H3744.83ZM3788.61 517.4H3791.8V558H3784.49V527.608L3776.72 532.248V524.36L3788.61 517.4ZM3815.35 516.936C3825.04 516.936 3830.32 524.708 3830.32 537.7C3830.32 550.692 3825.04 558.464 3815.35 558.464C3805.67 558.464 3800.39 550.692 3800.39 537.7C3800.39 524.708 3805.67 516.936 3815.35 516.936ZM3815.35 523.664C3810.02 523.664 3807.58 528.652 3807.58 537.7C3807.58 546.748 3810.02 551.736 3815.35 551.736C3820.69 551.736 3823.12 546.748 3823.12 537.7C3823.12 528.652 3820.69 523.664 3815.35 523.664ZM3852.05 542.746V536.482H3873.68V542.746H3852.05ZM3897.06 517.4H3922.17V524.36H3904.6V532.886H3918.69V539.846H3904.6V551.04H3922.75V558H3897.06V517.4ZM3929.72 516.936H3936.91V558H3929.72V516.936ZM3971.27 542.746V545.704H3951.15C3951.32 548.952 3953.58 552.316 3958.05 552.316C3961.36 552.316 3963.39 550.808 3965.13 547.792L3970.93 549.938C3968.66 555.1 3964.72 558.464 3957.64 558.464C3947.61 558.464 3943.61 550.286 3943.61 543.384C3943.61 536.482 3947.61 528.304 3957.64 528.304C3967.39 528.304 3971.27 536.366 3971.27 542.746ZM3957.64 534.452C3953.99 534.452 3951.84 537.236 3951.32 540.02H3963.91C3963.27 537.12 3961.47 534.452 3957.64 534.452ZM3998.19 547.502L4004.63 550.112C4002.43 555.622 3997.85 558.464 3991.35 558.464C3981.84 558.464 3977.08 551.62 3977.08 543.384C3977.08 535.148 3981.84 528.304 3991.35 528.304C3997.85 528.304 4002.43 531.146 4004.63 536.656L3998.19 539.266C3996.69 536.192 3994.6 534.452 3991.35 534.452C3986.83 534.452 3984.62 538.222 3984.62 543.384C3984.62 548.546 3986.83 552.316 3991.35 552.316C3994.6 552.316 3996.69 550.576 3998.19 547.502ZM4027.15 551.62L4028.83 557.42C4027.21 558.174 4025.64 558.464 4024.08 558.464C4017.47 558.464 4013.35 554.926 4013.35 547.676V534.916H4008.82V528.768H4013.35V521.46L4020.54 516.936V528.768H4028.25V534.916H4020.54V547.56C4020.54 551.156 4021.93 552.316 4024.37 552.316C4025.35 552.316 4026.17 552.142 4027.15 551.62ZM4042.32 558H4035.13V528.768H4042.32V533.524C4044.41 530.102 4047.66 528.304 4050.97 528.304C4052.24 528.304 4053.34 528.536 4054.5 528.884L4053.17 535.554C4052.3 535.032 4051.37 534.742 4050.15 534.742C4045.98 534.742 4042.32 538.164 4042.32 547.618V558ZM4057.57 543.384C4057.57 534.916 4063.02 528.304 4072.42 528.304C4081.81 528.304 4087.26 534.916 4087.26 543.384C4087.26 551.852 4081.81 558.464 4072.42 558.464C4063.02 558.464 4057.57 551.852 4057.57 543.384ZM4065.11 543.384C4065.11 548.198 4067.78 552.316 4072.42 552.316C4077.06 552.316 4079.72 548.198 4079.72 543.384C4079.72 538.57 4077.06 534.452 4072.42 534.452C4067.78 534.452 4065.11 538.57 4065.11 543.384ZM4093.76 528.768H4100.95V533.466C4103.09 530.392 4106.23 528.304 4110 528.304C4115.22 528.304 4118.99 531.262 4118.99 537.12V558H4111.79V539.266C4111.79 535.786 4110.05 534.452 4107.62 534.452C4104.14 534.452 4100.95 538.628 4100.95 546.342V558H4093.76V528.768ZM4124.7 520.358C4124.7 517.748 4126.67 515.718 4129.34 515.718C4132 515.718 4133.98 517.748 4133.98 520.358C4133.98 522.968 4132 524.998 4129.34 524.998C4126.67 524.998 4124.7 522.968 4124.7 520.358ZM4125.74 528.768H4132.93V558H4125.74V528.768ZM4160.98 547.502L4167.42 550.112C4165.21 555.622 4160.63 558.464 4154.14 558.464C4144.62 558.464 4139.87 551.62 4139.87 543.384C4139.87 535.148 4144.62 528.304 4154.14 528.304C4160.63 528.304 4165.21 531.146 4167.42 536.656L4160.98 539.266C4159.47 536.192 4157.38 534.452 4154.14 534.452C4149.61 534.452 4147.41 538.222 4147.41 543.384C4147.41 548.546 4149.61 552.316 4154.14 552.316C4157.38 552.316 4159.47 550.576 4160.98 547.502ZM4182.72 528.304C4186.66 528.304 4190.08 530.218 4191.88 533.06L4187.59 537.004C4186.25 535.264 4184.34 534.452 4182.72 534.452C4181.32 534.452 4180.05 535.264 4180.05 536.888C4180.05 538.164 4181.09 539.092 4182.83 539.73C4186.83 541.18 4193.39 542.456 4193.39 548.72C4193.39 553.998 4189.33 558.464 4183.01 558.464C4176.92 558.464 4172.86 554.172 4171.41 550.576L4177.15 547.502C4178.19 550.344 4180.16 552.316 4183.01 552.316C4185.21 552.316 4186.6 551.33 4186.6 549.184C4186.6 546.748 4182.83 546.226 4179.29 544.718C4176.1 543.384 4173.38 541.354 4173.38 536.83C4173.38 532.306 4177.03 528.304 4182.72 528.304ZM4226.86 558.464C4219.61 558.464 4213.98 553.882 4213.98 546.052C4213.98 539.962 4217.7 535.786 4221.7 533.524C4220.07 531.262 4218.91 528.42 4218.91 525.578C4218.91 520.822 4222.57 516.936 4228.37 516.936C4234.4 516.936 4237.76 520.938 4237.76 525.056C4237.76 529.928 4234.63 533.524 4231.15 535.38L4237.82 544.138C4238.92 542.05 4239.79 539.962 4240.78 536.83L4244.96 541.702C4244.32 544.428 4243.33 547.154 4241.94 549.532L4248.44 558H4239.91L4237.53 554.868C4234.75 557.072 4231.21 558.464 4226.86 558.464ZM4226.92 551.794C4229.82 551.794 4231.67 551.04 4233.53 549.532L4225.35 538.628C4222.57 540.31 4220.94 542.978 4220.94 545.936C4220.94 549.184 4223.26 551.794 4226.92 551.794ZM4228.37 523.084C4226.57 523.084 4225.29 524.244 4225.29 526.042C4225.29 527.782 4226.05 529.116 4227.15 530.508C4228.95 529.696 4231.27 528.246 4231.27 525.81C4231.27 524.186 4230.11 523.084 4228.37 523.084ZM4303.73 529.232L4296.94 530.972C4295.38 526.854 4292.54 523.896 4286.91 523.896C4280.65 523.896 4275.37 528.304 4275.37 537.7C4275.37 547.096 4280.65 551.504 4286.91 551.504C4292.54 551.504 4295.38 548.546 4296.94 544.428L4303.73 546.168C4301.82 553.94 4295.73 558.464 4286.91 558.464C4276.76 558.464 4267.71 551.272 4267.71 537.7C4267.71 524.128 4276.76 516.936 4286.91 516.936C4295.73 516.936 4301.82 521.46 4303.73 529.232ZM4308.83 543.384C4308.83 534.916 4314.28 528.304 4323.67 528.304C4333.07 528.304 4338.52 534.916 4338.52 543.384C4338.52 551.852 4333.07 558.464 4323.67 558.464C4314.28 558.464 4308.83 551.852 4308.83 543.384ZM4316.37 543.384C4316.37 548.198 4319.03 552.316 4323.67 552.316C4328.31 552.316 4330.98 548.198 4330.98 543.384C4330.98 538.57 4328.31 534.452 4323.67 534.452C4319.03 534.452 4316.37 538.57 4316.37 543.384ZM4369.71 558H4362.52V538.512C4362.52 535.554 4361.07 534.452 4358.92 534.452C4355.39 534.452 4352.6 538.57 4352.6 547.27V558H4345.41V528.768H4352.6V533.466C4354.75 530.218 4357.24 528.304 4361.01 528.304C4364.61 528.304 4367.91 530.102 4369.19 534.336C4371.28 530.566 4374.53 528.304 4378.12 528.304C4383.57 528.304 4386.82 531.668 4386.82 537.294V558H4379.63V538.512C4379.63 535.554 4378.18 534.452 4376.03 534.452C4372.55 534.452 4369.71 538.396 4369.71 546.632V558ZM4418.93 558H4411.74V538.512C4411.74 535.554 4410.29 534.452 4408.14 534.452C4404.61 534.452 4401.82 538.57 4401.82 547.27V558H4394.63V528.768H4401.82V533.466C4403.97 530.218 4406.46 528.304 4410.23 528.304C4413.83 528.304 4417.13 530.102 4418.41 534.336C4420.5 530.566 4423.75 528.304 4427.34 528.304C4432.79 528.304 4436.04 531.668 4436.04 537.294V558H4428.85V538.512C4428.85 535.554 4427.4 534.452 4425.25 534.452C4421.77 534.452 4418.93 538.396 4418.93 546.632V558ZM4453.63 528.304C4457.57 528.304 4460.99 530.218 4462.79 533.06L4458.5 537.004C4457.17 535.264 4455.25 534.452 4453.63 534.452C4452.24 534.452 4450.96 535.264 4450.96 536.888C4450.96 538.164 4452 539.092 4453.74 539.73C4457.75 541.18 4464.3 542.456 4464.3 548.72C4464.3 553.998 4460.24 558.464 4453.92 558.464C4447.83 558.464 4443.77 554.172 4442.32 550.576L4448.06 547.502C4449.1 550.344 4451.08 552.316 4453.92 552.316C4456.12 552.316 4457.51 551.33 4457.51 549.184C4457.51 546.748 4453.74 546.226 4450.21 544.718C4447.02 543.384 4444.29 541.354 4444.29 536.83C4444.29 532.306 4447.94 528.304 4453.63 528.304ZM4486.29 517.4H4493.83V551.04H4511.05V558H4486.29V517.4ZM4521.28 537.816L4515.19 536.424C4516.11 531.61 4520.35 528.304 4526.32 528.304C4533.28 528.304 4538.62 531.204 4538.62 540.542V558H4532.7L4531.95 554.288C4529.92 556.782 4527.13 558.464 4522.96 558.464C4517.97 558.464 4514.08 555.39 4514.08 549.59C4514.08 543.79 4519.19 540.02 4526.55 540.02H4531.43V538.744C4531.43 535.496 4528.99 534.452 4526.32 534.452C4524.29 534.452 4522.2 535.09 4521.28 537.816ZM4521.62 549.474C4521.62 550.866 4522.61 552.316 4524.64 552.316C4527.95 552.316 4531.43 550.054 4531.43 546.284V545.704H4526.61C4523.54 545.704 4521.62 546.864 4521.62 549.474ZM4573.41 543.384C4573.41 552.374 4568.89 558.464 4560.07 558.464C4556.48 558.464 4553.81 556.492 4553 554.984V558H4545.8V516.936H4553V531.436C4554.27 529.812 4557.11 528.304 4560.07 528.304C4568.89 528.304 4573.41 534.394 4573.41 543.384ZM4565.87 543.384C4565.87 537.584 4562.86 534.452 4559.09 534.452C4555.32 534.452 4552.36 537.584 4552.36 543.384C4552.36 549.184 4555.32 552.316 4559.09 552.316C4562.86 552.316 4565.87 549.184 4565.87 543.384Z" fill="black"/>
<path d="M2797.22 943.4H2822.91V950.36H2804.76V959.64H2819.38V966.6H2804.76V984H2797.22V943.4ZM2824.91 969.384C2824.91 960.916 2830.36 954.304 2839.76 954.304C2849.15 954.304 2854.61 960.916 2854.61 969.384C2854.61 977.852 2849.15 984.464 2839.76 984.464C2830.36 984.464 2824.91 977.852 2824.91 969.384ZM2832.45 969.384C2832.45 974.198 2835.12 978.316 2839.76 978.316C2844.4 978.316 2847.07 974.198 2847.07 969.384C2847.07 964.57 2844.4 960.452 2839.76 960.452C2835.12 960.452 2832.45 964.57 2832.45 969.384ZM2856.8 954.768H2864.05L2870.84 973.096L2877.22 954.768H2884.41L2869.33 995.832H2862.37L2867.41 982.144L2856.8 954.768ZM2913.92 968.746V971.704H2893.79C2893.97 974.952 2896.23 978.316 2900.69 978.316C2904 978.316 2906.03 976.808 2907.77 973.792L2913.57 975.938C2911.31 981.1 2907.36 984.464 2900.29 984.464C2890.25 984.464 2886.25 976.286 2886.25 969.384C2886.25 962.482 2890.25 954.304 2900.29 954.304C2910.03 954.304 2913.92 962.366 2913.92 968.746ZM2900.29 960.452C2896.63 960.452 2894.49 963.236 2893.97 966.02H2906.55C2905.91 963.12 2904.12 960.452 2900.29 960.452ZM2927.59 984H2920.4V954.768H2927.59V959.524C2929.68 956.102 2932.93 954.304 2936.23 954.304C2937.51 954.304 2938.61 954.536 2939.77 954.884L2938.44 961.554C2937.57 961.032 2936.64 960.742 2935.42 960.742C2931.25 960.742 2927.59 964.164 2927.59 973.618V984ZM2959.84 943.4H2967.38V977.04H2984.6V984H2959.84V943.4ZM3015.87 968.746V971.704H2995.74C2995.92 974.952 2998.18 978.316 3002.65 978.316C3005.95 978.316 3007.98 976.808 3009.72 973.792L3015.52 975.938C3013.26 981.1 3009.32 984.464 3002.24 984.464C2992.21 984.464 2988.2 976.286 2988.2 969.384C2988.2 962.482 2992.21 954.304 3002.24 954.304C3011.98 954.304 3015.87 962.366 3015.87 968.746ZM3002.24 960.452C2998.59 960.452 2996.44 963.236 2995.92 966.02H3008.5C3007.87 963.12 3006.07 960.452 3002.24 960.452ZM3018.63 954.768H3025.88L3031.79 975.126L3037.71 954.768H3044.96L3035.04 984H3028.54L3018.63 954.768ZM3074.89 968.746V971.704H3054.76C3054.94 974.952 3057.2 978.316 3061.67 978.316C3064.97 978.316 3067 976.808 3068.74 973.792L3074.54 975.938C3072.28 981.1 3068.34 984.464 3061.26 984.464C3051.23 984.464 3047.22 976.286 3047.22 969.384C3047.22 962.482 3051.23 954.304 3061.26 954.304C3071 954.304 3074.89 962.366 3074.89 968.746ZM3061.26 960.452C3057.61 960.452 3055.46 963.236 3054.94 966.02H3067.52C3066.89 963.12 3065.09 960.452 3061.26 960.452ZM3081.26 942.936H3088.45V984H3081.26V942.936ZM3110.97 984V981.1L3125.47 962.366C3127.91 959.292 3128.61 957.32 3128.61 955C3128.61 951.694 3126.92 949.664 3123.62 949.664C3120.72 949.664 3118.8 951.578 3118.34 955L3111.61 953.724C3112.02 947.576 3117.01 942.936 3123.79 942.936C3131.51 942.936 3135.91 947.866 3135.91 954.71C3135.91 957.958 3134.87 961.148 3132.43 964.338L3122.52 977.272H3136.78V984H3110.97Z" fill="black"/>
</g>
<g id="level2-hotspot-container"/>
<defs>
<clipPath id="clip0_1036_315">
<rect width="4828" height="1551" fill="white"/>
</clipPath>
</defs>
</svg>
