<svg width="4828" height="1551" viewBox="0 0 4828 1551" fill="none" xmlns="http://www.w3.org/2000/svg">
<g clip-path="url(#clip0_1442_586)">
<mask id="mask0_1442_586" style="mask-type:luminance" maskUnits="userSpaceOnUse" x="0" y="0" width="4828" height="1551">
<path d="M4828 0H0V1551H4828V0Z" fill="white"/>
</mask>
<g mask="url(#mask0_1442_586)">
<path fill-rule="evenodd" clip-rule="evenodd" d="M3470 0H4324V882H4817V1541H3470V1169H3355V1253H2705V1145H1719V1261H1629V1542H0V2H1672V766H3024V140H3408V766H3468V781H3470V0ZM3246 318H3197V767H3246V318Z" fill="#CCCCCC"/>
<path d="M1725 953.5V1266H1634V1549H4V4H1678V771H1725V788" stroke="black" stroke-width="8"/>
<path d="M3574.41 947.654H3473" stroke="black" stroke-width="6"/>
<path d="M3473 848C3529.33 848 3575 893.667 3575 950" stroke="black" stroke-width="2"/>
<path d="M3536.63 785.471H3473" stroke="black" stroke-width="6"/>
<path d="M3473 848C3508.35 848 3537 819.346 3537 784" stroke="black" stroke-width="2"/>
<path d="M3473 788V4H4329V884M3473 946V1547H4329V1215.5" stroke="black" stroke-width="8"/>
<path d="M4430.41 1144.66H4329" stroke="black" stroke-width="6"/>
<path d="M4329 1045C4385.33 1045 4431 1090.67 4431 1147" stroke="black" stroke-width="2"/>
<path d="M4392.63 982.471H4329" stroke="black" stroke-width="6"/>
<path d="M4329 1045C4364.35 1045 4393 1016.35 4393 981" stroke="black" stroke-width="2"/>
<path d="M4329 1144.5V1547H4824V886H4329V982.5" stroke="black" stroke-width="8"/>
<path d="M1623.59 786.346H1725" stroke="black" stroke-width="6"/>
<path d="M1725 886C1668.67 886 1623 840.333 1623 784" stroke="black" stroke-width="2"/>
<path d="M1661.37 948.529H1725" stroke="black" stroke-width="6"/>
<path d="M1725 886C1689.65 886 1661 914.654 1661 950" stroke="black" stroke-width="2"/>
<path d="M3473 771H3414.5V144H3029.5V771H1725V786M3473 1172.5H3359V1257.5H2709V1149H1725V949" stroke="black" stroke-width="8"/>
<path d="M3251 322H3202V771H3251V322Z" stroke="black" stroke-width="8"/>
<path d="M1102 1324H945V1399H1102V1324Z" stroke="black" stroke-width="4"/>
<path d="M1102 1249H945V1324H1102V1249Z" stroke="black" stroke-width="4"/>
<path d="M1260 1324H1102V1399H1260V1324Z" stroke="black" stroke-width="4"/>
<path d="M1260 1249H1102V1324H1260V1249Z" stroke="black" stroke-width="4"/>
<path d="M1417 1324H1260V1399H1417V1324Z" stroke="black" stroke-width="4"/>
<path d="M1417 1249H1260V1324H1417V1249Z" stroke="black" stroke-width="4"/>
<path d="M1102 960H945V1035H1102V960Z" stroke="black" stroke-width="4"/>
<path d="M1102 885H945V960H1102V885Z" stroke="black" stroke-width="4"/>
<path d="M1260 960H1102V1035H1260V960Z" stroke="black" stroke-width="4"/>
<path d="M1260 885H1102V960H1260V885Z" stroke="black" stroke-width="4"/>
<path d="M1417 960H1260V1035H1417V960Z" stroke="black" stroke-width="4"/>
<path d="M1417 885H1260V960H1417V885Z" stroke="black" stroke-width="4"/>
<path d="M1102 596H945V671H1102V596Z" stroke="black" stroke-width="4"/>
<path d="M1102 521H945V596H1102V521Z" stroke="black" stroke-width="4"/>
<path d="M1260 596H1102V671H1260V596Z" stroke="black" stroke-width="4"/>
<path d="M1260 521H1102V596H1260V521Z" stroke="black" stroke-width="4"/>
<path d="M1417 596H1260V671H1417V596Z" stroke="black" stroke-width="4"/>
<path d="M1417 521H1260V596H1417V521Z" stroke="black" stroke-width="4"/>
<path d="M1102 228H945V303H1102V228Z" stroke="black" stroke-width="4"/>
<path d="M1102 153H945V228H1102V153Z" stroke="black" stroke-width="4"/>
<path d="M1260 228H1102V303H1260V228Z" stroke="black" stroke-width="4"/>
<path d="M1260 153H1102V228H1260V153Z" stroke="black" stroke-width="4"/>
<path d="M1417 228H1260V303H1417V228Z" stroke="black" stroke-width="4"/>
<path d="M1417 153H1260V228H1417V153Z" stroke="black" stroke-width="4"/>
<path d="M644 228H487V303H644V228Z" stroke="black" stroke-width="4"/>
<path d="M644 153H487V228H644V153Z" stroke="black" stroke-width="4"/>
<path d="M802 228H644V303H802V228Z" stroke="black" stroke-width="4"/>
<path d="M802 153H644V228H802V153Z" stroke="black" stroke-width="4"/>
<path d="M644 1324H487V1399H644V1324Z" stroke="black" stroke-width="4"/>
<path d="M644 1249H487V1324H644V1249Z" stroke="black" stroke-width="4"/>
<path d="M802 1324H644V1399H802V1324Z" stroke="black" stroke-width="4"/>
<path d="M802 1249H644V1324H802V1249Z" stroke="black" stroke-width="4"/>
<path d="M3885.4 232H3698V331H3885.4V232Z" stroke="black" stroke-width="4"/>
<path d="M3885.4 133H3698V232H3885.4V133Z" stroke="black" stroke-width="4"/>
<path d="M4074 232H3885.4V331H4074V232Z" stroke="black" stroke-width="4"/>
<path d="M4074 133H3885.4V232H4074V133Z" stroke="black" stroke-width="4"/>
<path d="M3885.4 616H3698V715H3885.4V616Z" stroke="black" stroke-width="4"/>
<path d="M3885.4 517H3698V616H3885.4V517Z" stroke="black" stroke-width="4"/>
<path d="M4074 616H3885.4V715H4074V616Z" stroke="black" stroke-width="4"/>
<path d="M4074 517H3885.4V616H4074V517Z" stroke="black" stroke-width="4"/>
<path d="M4059 1197H3713V1356H4059V1197Z" stroke="black" stroke-width="4"/>
<path d="M4410 1393V1171H4332V1393H4410Z" stroke="black" stroke-width="4"/>
<path d="M4828 1393V1171H4750V1393H4828Z" stroke="black" stroke-width="4"/>
<path d="M3572 1545V1215H3475V1545H3572Z" stroke="black" stroke-width="4"/>
<path d="M790.229 897.163L641.164 829.855L573.856 978.92L722.921 1046.23L790.229 897.163Z" stroke="black" stroke-width="4"/>
<path d="M430.782 1169.74L318.738 1050.59L199.588 1162.63L311.632 1281.78L430.782 1169.74Z" stroke="black" stroke-width="4"/>
<path d="M335.333 506.659L220.66 623.281L337.283 737.954L451.955 621.331L335.333 506.659Z" stroke="black" stroke-width="4"/>
<path d="M326 256H246V415H326V256Z" stroke="black" stroke-width="4"/>
<path d="M692.399 517.053L542.055 581.451L606.453 731.796L756.797 667.397L692.399 517.053Z" stroke="black" stroke-width="4"/>
<path d="M3202 745.646H3029V776.001H3202V745.646Z" stroke="black" stroke-width="2"/>
<path d="M3202 625.547H3029V655.902H3202V625.547Z" stroke="black" stroke-width="2"/>
<path d="M3202 684.936H3029V715.29H3202V684.936Z" stroke="black" stroke-width="2"/>
<path d="M3202 564.838H3029V595.193H3202V564.838Z" stroke="black" stroke-width="2"/>
<path d="M3202 715.291H3029V745.646H3202V715.291Z" stroke="black" stroke-width="2"/>
<path d="M3202 595.191H3029V625.546H3202V595.191Z" stroke="black" stroke-width="2"/>
<path d="M3202 655.9H3029V684.935H3202V655.9Z" stroke="black" stroke-width="2"/>
<path d="M3202 534.482H3029V564.837H3202V534.482Z" stroke="black" stroke-width="2"/>
<path d="M3202 504.129H3029V534.484H3202V504.129Z" stroke="black" stroke-width="2"/>
<path d="M3202 382.709H3029V413.064H3202V382.709Z" stroke="black" stroke-width="2"/>
<path d="M3202 443.418H3029V473.773H3202V443.418Z" stroke="black" stroke-width="2"/>
<path d="M3202 322H3029V352.355H3202V322Z" stroke="black" stroke-width="2"/>
<path d="M3202 473.773H3029V504.128H3202V473.773Z" stroke="black" stroke-width="2"/>
<path d="M3202 352.354H3029V382.708H3202V352.354Z" stroke="black" stroke-width="2"/>
<path d="M3202 413.064H3029V443.419H3202V413.064Z" stroke="black" stroke-width="2"/>
<path d="M3413 745.646H3251V776.001H3413V745.646Z" stroke="black" stroke-width="2"/>
<path d="M3413 625.547H3251V655.902H3413V625.547Z" stroke="black" stroke-width="2"/>
<path d="M3413 684.936H3251V715.29H3413V684.936Z" stroke="black" stroke-width="2"/>
<path d="M3413 564.838H3251V595.193H3413V564.838Z" stroke="black" stroke-width="2"/>
<path d="M3413 715.291H3251V745.646H3413V715.291Z" stroke="black" stroke-width="2"/>
<path d="M3413 595.191H3251V625.546H3413V595.191Z" stroke="black" stroke-width="2"/>
<path d="M3413 655.9H3251V684.935H3413V655.9Z" stroke="black" stroke-width="2"/>
<path d="M3413 534.482H3251V564.837H3413V534.482Z" stroke="black" stroke-width="2"/>
<path d="M3413 504.129H3251V534.484H3413V504.129Z" stroke="black" stroke-width="2"/>
<path d="M3413 382.709H3251V413.064H3413V382.709Z" stroke="black" stroke-width="2"/>
<path d="M3413 443.42H3251V473.775H3413V443.42Z" stroke="black" stroke-width="2"/>
<path d="M3413 473.773H3251V504.128H3413V473.773Z" stroke="black" stroke-width="2"/>
<path d="M3413 413.064H3251V443.419H3413V413.064Z" stroke="black" stroke-width="2"/>
<path d="M446.835 755.4H450.025V796H442.717V765.608L434.945 770.248V762.36L446.835 755.4ZM473.577 754.936C483.263 754.936 488.541 762.708 488.541 775.7C488.541 788.692 483.263 796.464 473.577 796.464C463.891 796.464 458.613 788.692 458.613 775.7C458.613 762.708 463.891 754.936 473.577 754.936ZM473.577 761.664C468.241 761.664 465.805 766.652 465.805 775.7C465.805 784.748 468.241 789.736 473.577 789.736C478.913 789.736 481.349 784.748 481.349 775.7C481.349 766.652 478.913 761.664 473.577 761.664ZM506.024 755.4H509.214V796H501.906V765.608L494.134 770.248V762.36L506.024 755.4ZM532.363 780.746V774.482H553.997V780.746H532.363ZM610.951 767.232L604.165 768.972C602.599 764.854 599.757 761.896 594.131 761.896C587.867 761.896 582.589 766.304 582.589 775.7C582.589 785.096 587.867 789.504 594.131 789.504C599.757 789.504 602.599 786.546 604.165 782.428L610.951 784.168C609.037 791.94 602.947 796.464 594.131 796.464C583.981 796.464 574.933 789.272 574.933 775.7C574.933 762.128 583.981 754.936 594.131 754.936C602.947 754.936 609.037 759.46 610.951 767.232ZM616.048 781.384C616.048 772.916 621.5 766.304 630.896 766.304C640.292 766.304 645.744 772.916 645.744 781.384C645.744 789.852 640.292 796.464 630.896 796.464C621.5 796.464 616.048 789.852 616.048 781.384ZM623.588 781.384C623.588 786.198 626.256 790.316 630.896 790.316C635.536 790.316 638.204 786.198 638.204 781.384C638.204 776.57 635.536 772.452 630.896 772.452C626.256 772.452 623.588 776.57 623.588 781.384ZM676.933 796H669.741V776.512C669.741 773.554 668.291 772.452 666.145 772.452C662.607 772.452 659.823 776.57 659.823 785.27V796H652.631V766.768H659.823V771.466C661.969 768.218 664.463 766.304 668.233 766.304C671.829 766.304 675.135 768.102 676.411 772.336C678.499 768.566 681.747 766.304 685.343 766.304C690.795 766.304 694.043 769.668 694.043 775.294V796H686.851V776.512C686.851 773.554 685.401 772.452 683.255 772.452C679.775 772.452 676.933 776.396 676.933 784.632V796ZM729.97 781.384C729.97 790.374 725.446 796.464 716.63 796.464C713.672 796.464 710.83 794.956 709.554 793.332V807.832H702.362V766.768H709.554V769.784C710.366 768.276 713.034 766.304 716.63 766.304C725.446 766.304 729.97 772.394 729.97 781.384ZM722.43 781.384C722.43 775.584 719.414 772.452 715.644 772.452C711.874 772.452 708.916 775.584 708.916 781.384C708.916 787.184 711.874 790.316 715.644 790.316C719.414 790.316 722.43 787.184 722.43 781.384ZM761.678 796H754.486V791.302C752.34 794.376 749.208 796.464 745.438 796.464C740.218 796.464 736.448 793.506 736.448 787.648V766.768H743.64V785.502C743.64 788.982 745.38 790.316 747.816 790.316C751.296 790.316 754.486 786.14 754.486 778.426V766.768H761.678V796ZM785.572 789.62L787.254 795.42C785.63 796.174 784.064 796.464 782.498 796.464C775.886 796.464 771.768 792.926 771.768 785.676V772.916H767.244V766.768H771.768V759.46L778.96 754.936V766.768H786.674V772.916H778.96V785.56C778.96 789.156 780.352 790.316 782.788 790.316C783.774 790.316 784.586 790.142 785.572 789.62ZM818.79 780.746V783.704H798.664C798.838 786.952 801.1 790.316 805.566 790.316C808.872 790.316 810.902 788.808 812.642 785.792L818.442 787.938C816.18 793.1 812.236 796.464 805.16 796.464C795.126 796.464 791.124 788.286 791.124 781.384C791.124 774.482 795.126 766.304 805.16 766.304C814.904 766.304 818.79 774.366 818.79 780.746ZM805.16 772.452C801.506 772.452 799.36 775.236 798.838 778.02H811.424C810.786 775.12 808.988 772.452 805.16 772.452ZM832.464 796H825.272V766.768H832.464V771.524C834.552 768.102 837.8 766.304 841.106 766.304C842.382 766.304 843.484 766.536 844.644 766.884L843.31 773.554C842.44 773.032 841.512 772.742 840.294 772.742C836.118 772.742 832.464 776.164 832.464 785.618V796ZM886.747 762.302L880.657 766.188C879.091 763.172 877.409 761.896 875.031 761.896C872.827 761.896 871.145 763.462 871.145 765.608C871.145 772.684 888.487 771.756 888.487 783.82C888.487 791.766 883.267 796.464 875.495 796.464C868.129 796.464 862.793 791.302 861.517 785.096L867.607 781.268C868.825 785.618 871.261 789.504 875.669 789.504C878.801 789.504 880.947 787.938 880.947 784.226C880.947 777.498 863.953 778.832 863.953 765.956C863.953 759.808 868.651 754.936 875.031 754.936C880.425 754.936 884.543 757.604 886.747 762.302ZM893.927 781.384C893.927 772.916 899.379 766.304 908.775 766.304C918.171 766.304 923.623 772.916 923.623 781.384C923.623 789.852 918.171 796.464 908.775 796.464C899.379 796.464 893.927 789.852 893.927 781.384ZM901.467 781.384C901.467 786.198 904.135 790.316 908.775 790.316C913.415 790.316 916.083 786.198 916.083 781.384C916.083 776.57 913.415 772.452 908.775 772.452C904.135 772.452 901.467 776.57 901.467 781.384ZM928.123 772.916V766.768H931.835V765.26C931.835 758.126 935.895 754.936 941.927 754.936C944.189 754.936 946.103 755.4 947.379 756.096L945.813 761.896C944.595 761.374 943.551 761.084 942.333 761.084C940.303 761.084 939.027 762.128 939.027 764.738V766.768H945.175V772.916H939.027V796H931.835V772.916H928.123ZM967.785 789.62L969.467 795.42C967.843 796.174 966.277 796.464 964.711 796.464C958.099 796.464 953.981 792.926 953.981 785.676V772.916H949.457V766.768H953.981V759.46L961.173 754.936V766.768H968.887V772.916H961.173V785.56C961.173 789.156 962.565 790.316 965.001 790.316C965.987 790.316 966.799 790.142 967.785 789.62ZM1006.85 766.768H1014.1L1004.77 796H998.386L993.34 777.092L988.294 796H981.914L972.576 766.768H979.826L985.046 786.836L989.976 766.768H996.704L1001.63 786.836L1006.85 766.768ZM1023.85 775.816L1017.76 774.424C1018.69 769.61 1022.92 766.304 1028.9 766.304C1035.86 766.304 1041.19 769.204 1041.19 778.542V796H1035.28L1034.52 792.288C1032.49 794.782 1029.71 796.464 1025.53 796.464C1020.55 796.464 1016.66 793.39 1016.66 787.59C1016.66 781.79 1021.76 778.02 1029.13 778.02H1034V776.744C1034 773.496 1031.57 772.452 1028.9 772.452C1026.87 772.452 1024.78 773.09 1023.85 775.816ZM1024.2 787.474C1024.2 788.866 1025.19 790.316 1027.22 790.316C1030.52 790.316 1034 788.054 1034 784.284V783.704H1029.19C1026.11 783.704 1024.2 784.864 1024.2 787.474ZM1055.29 796H1048.1V766.768H1055.29V771.524C1057.38 768.102 1060.62 766.304 1063.93 766.304C1065.21 766.304 1066.31 766.536 1067.47 766.884L1066.13 773.554C1065.26 773.032 1064.34 772.742 1063.12 772.742C1058.94 772.742 1055.29 776.164 1055.29 785.618V796ZM1098.2 780.746V783.704H1078.07C1078.25 786.952 1080.51 790.316 1084.97 790.316C1088.28 790.316 1090.31 788.808 1092.05 785.792L1097.85 787.938C1095.59 793.1 1091.64 796.464 1084.57 796.464C1074.53 796.464 1070.53 788.286 1070.53 781.384C1070.53 774.482 1074.53 766.304 1084.57 766.304C1094.31 766.304 1098.2 774.366 1098.2 780.746ZM1084.57 772.452C1080.91 772.452 1078.77 775.236 1078.25 778.02H1090.83C1090.19 775.12 1088.4 772.452 1084.57 772.452ZM1119.87 755.4H1127.41V789.04H1144.64V796H1119.87V755.4ZM1154.86 775.816L1148.77 774.424C1149.7 769.61 1153.93 766.304 1159.91 766.304C1166.87 766.304 1172.2 769.204 1172.2 778.542V796H1166.29L1165.53 792.288C1163.5 794.782 1160.72 796.464 1156.54 796.464C1151.55 796.464 1147.67 793.39 1147.67 787.59C1147.67 781.79 1152.77 778.02 1160.14 778.02H1165.01V776.744C1165.01 773.496 1162.57 772.452 1159.91 772.452C1157.88 772.452 1155.79 773.09 1154.86 775.816ZM1155.21 787.474C1155.21 788.866 1156.19 790.316 1158.22 790.316C1161.53 790.316 1165.01 788.054 1165.01 784.284V783.704H1160.2C1157.12 783.704 1155.21 784.864 1155.21 787.474ZM1207 781.384C1207 790.374 1202.47 796.464 1193.66 796.464C1190.06 796.464 1187.39 794.492 1186.58 792.984V796H1179.39V754.936H1186.58V769.436C1187.86 767.812 1190.7 766.304 1193.66 766.304C1202.47 766.304 1207 772.394 1207 781.384ZM1199.46 781.384C1199.46 775.584 1196.44 772.452 1192.67 772.452C1188.9 772.452 1185.94 775.584 1185.94 781.384C1185.94 787.184 1188.9 790.316 1192.67 790.316C1196.44 790.316 1199.46 787.184 1199.46 781.384Z" fill="black"/>
<path d="M3696.59 759.401H3699.78V800.001H3692.47V769.609L3684.7 774.249V766.361L3696.59 759.401ZM3719.25 759.401H3722.44V800.001H3715.13V769.609L3707.36 774.249V766.361L3719.25 759.401ZM3745.99 758.937C3755.68 758.937 3760.95 766.709 3760.95 779.701C3760.95 792.693 3755.68 800.465 3745.99 800.465C3736.3 800.465 3731.03 792.693 3731.03 779.701C3731.03 766.709 3736.3 758.937 3745.99 758.937ZM3745.99 765.665C3740.65 765.665 3738.22 770.653 3738.22 779.701C3738.22 788.749 3740.65 793.737 3745.99 793.737C3751.33 793.737 3753.76 788.749 3753.76 779.701C3753.76 770.653 3751.33 765.665 3745.99 765.665ZM3782.69 784.747V778.483H3804.32V784.747H3782.69ZM3854.84 770.943C3854.84 776.279 3852.17 780.339 3847.24 781.847L3858.49 800.001H3850.08L3839.18 782.485H3835.23V800.001H3827.69V759.401H3842.48C3850.6 759.401 3854.84 764.215 3854.84 770.943ZM3842.54 775.525C3845.27 775.525 3847.3 774.249 3847.3 770.943C3847.3 767.637 3845.27 766.361 3842.54 766.361H3835.23V775.525H3842.54ZM3869.48 779.817L3863.39 778.425C3864.32 773.611 3868.55 770.305 3874.52 770.305C3881.48 770.305 3886.82 773.205 3886.82 782.543V800.001H3880.9L3880.15 796.289C3878.12 798.783 3875.34 800.465 3871.16 800.465C3866.17 800.465 3862.29 797.391 3862.29 791.591C3862.29 785.791 3867.39 782.021 3874.76 782.021H3879.63V780.745C3879.63 777.497 3877.19 776.453 3874.52 776.453C3872.49 776.453 3870.41 777.091 3869.48 779.817ZM3869.83 791.475C3869.83 792.867 3870.81 794.317 3872.84 794.317C3876.15 794.317 3879.63 792.055 3879.63 788.285V787.705H3874.81C3871.74 787.705 3869.83 788.865 3869.83 791.475ZM3889.88 770.769H3897.13L3903.92 789.097L3910.3 770.769H3917.49L3902.41 811.833H3895.45L3900.49 798.145L3889.88 770.769ZM3946.29 800.001H3939.1V780.513C3939.1 777.555 3937.65 776.453 3935.5 776.453C3931.96 776.453 3929.18 780.571 3929.18 789.271V800.001H3921.99V770.769H3929.18V775.467C3931.32 772.219 3933.82 770.305 3937.59 770.305C3941.18 770.305 3944.49 772.103 3945.77 776.337C3947.85 772.567 3951.1 770.305 3954.7 770.305C3960.15 770.305 3963.4 773.669 3963.4 779.295V800.001H3956.21V780.513C3956.21 777.555 3954.76 776.453 3952.61 776.453C3949.13 776.453 3946.29 780.397 3946.29 788.633V800.001ZM3969.91 785.385C3969.91 776.917 3975.36 770.305 3984.76 770.305C3994.15 770.305 3999.61 776.917 3999.61 785.385C3999.61 793.853 3994.15 800.465 3984.76 800.465C3975.36 800.465 3969.91 793.853 3969.91 785.385ZM3977.45 785.385C3977.45 790.199 3980.12 794.317 3984.76 794.317C3989.4 794.317 3992.07 790.199 3992.07 785.385C3992.07 780.571 3989.4 776.453 3984.76 776.453C3980.12 776.453 3977.45 780.571 3977.45 785.385ZM4006.1 770.769H4013.29V775.467C4015.44 772.393 4018.57 770.305 4022.34 770.305C4027.56 770.305 4031.33 773.263 4031.33 779.121V800.001H4024.14V781.267C4024.14 777.787 4022.4 776.453 4019.96 776.453C4016.48 776.453 4013.29 780.629 4013.29 788.343V800.001H4006.1V770.769ZM4037.77 785.385C4037.77 776.395 4042.29 770.305 4051.11 770.305C4054.06 770.305 4056.91 771.813 4058.18 773.437V758.937H4065.37V800.001H4058.18V796.985C4057.37 798.493 4054.7 800.465 4051.11 800.465C4042.29 800.465 4037.77 794.375 4037.77 785.385ZM4045.31 785.385C4045.31 791.185 4048.32 794.317 4052.09 794.317C4055.86 794.317 4058.82 791.185 4058.82 785.385C4058.82 779.585 4055.86 776.453 4052.09 776.453C4048.32 776.453 4045.31 779.585 4045.31 785.385ZM4089.6 759.401H4097.14V774.481L4111 759.401H4120.28L4103.81 777.555L4121.44 800.001H4111.87L4097.14 780.629V800.001H4089.6V759.401ZM4124.27 762.359C4124.27 759.749 4126.24 757.719 4128.91 757.719C4131.57 757.719 4133.55 759.749 4133.55 762.359C4133.55 764.969 4131.57 766.999 4128.91 766.999C4126.24 766.999 4124.27 764.969 4124.27 762.359ZM4125.31 770.769H4132.5V800.001H4125.31V770.769ZM4147.41 800.001H4140.22V770.769H4147.41V775.525C4149.5 772.103 4152.75 770.305 4156.06 770.305C4157.33 770.305 4158.43 770.537 4159.59 770.885L4158.26 777.555C4157.39 777.033 4156.46 776.743 4155.24 776.743C4151.07 776.743 4147.41 780.165 4147.41 789.619V800.001ZM4192.3 785.385C4192.3 794.375 4187.77 800.465 4178.96 800.465C4175.36 800.465 4172.69 798.493 4171.88 796.985V800.001H4164.69V758.937H4171.88V773.437C4173.16 771.813 4176 770.305 4178.96 770.305C4187.77 770.305 4192.3 776.395 4192.3 785.385ZM4184.76 785.385C4184.76 779.585 4181.74 776.453 4177.97 776.453C4174.2 776.453 4171.24 779.585 4171.24 785.385C4171.24 791.185 4174.2 794.317 4177.97 794.317C4181.74 794.317 4184.76 791.185 4184.76 785.385ZM4194.49 770.769H4201.74L4208.53 789.097L4214.91 770.769H4222.1L4207.02 811.833H4200.06L4205.11 798.145L4194.49 770.769ZM3602.63 831.401H3627.75V838.361H3610.17V846.887H3624.27V853.847H3610.17V865.041H3628.33V872.001H3602.63V831.401ZM3635.41 842.769H3642.6V847.467C3644.75 844.393 3647.88 842.305 3651.65 842.305C3656.87 842.305 3660.64 845.263 3660.64 851.121V872.001H3653.45V853.267C3653.45 849.787 3651.71 848.453 3649.27 848.453C3645.79 848.453 3642.6 852.629 3642.6 860.343V872.001H3635.41V842.769ZM3669.34 852.165C3669.34 846.075 3674.16 842.305 3680.07 842.305C3682.04 842.305 3683.84 842.769 3685.47 843.581L3690.98 840.681L3693.82 845.437L3689.64 847.525C3690.4 848.859 3690.8 850.425 3690.8 852.165C3690.8 858.313 3685.99 861.909 3680.07 861.909C3678.56 861.909 3677.11 861.677 3675.84 861.271C3674.97 861.793 3674.45 862.547 3674.45 863.475C3674.45 864.867 3675.43 865.621 3677.17 865.621H3683.15C3689.29 865.621 3693.41 868.579 3693.41 874.205C3693.41 881.397 3686.63 884.297 3680.13 884.297C3672.65 884.297 3666.91 881.049 3666.91 874.669C3666.91 872.291 3667.78 870.261 3669.28 868.869C3668.36 867.767 3667.78 866.201 3667.78 864.345C3667.78 861.561 3669.23 859.473 3671.37 858.197C3670.1 856.631 3669.34 854.601 3669.34 852.165ZM3681.52 871.653H3677.58C3676.36 871.653 3675.26 871.595 3674.21 871.421C3673.75 872.117 3673.58 872.987 3673.58 874.089C3673.58 876.873 3676.36 878.265 3680.13 878.265C3683.55 878.265 3686.22 877.279 3686.22 874.669C3686.22 872.233 3684.25 871.653 3681.52 871.653ZM3676.07 852.165C3676.07 854.543 3677.75 856.109 3680.07 856.109C3682.39 856.109 3684.07 854.543 3684.07 852.165C3684.07 849.729 3682.39 848.105 3680.07 848.105C3677.75 848.105 3676.07 849.729 3676.07 852.165ZM3697.85 834.359C3697.85 831.749 3699.82 829.719 3702.49 829.719C3705.15 829.719 3707.13 831.749 3707.13 834.359C3707.13 836.969 3705.15 838.999 3702.49 838.999C3699.82 838.999 3697.85 836.969 3697.85 834.359ZM3698.89 842.769H3706.08V872.001H3698.89V842.769ZM3713.35 842.769H3720.54V847.467C3722.69 844.393 3725.82 842.305 3729.59 842.305C3734.81 842.305 3738.58 845.263 3738.58 851.121V872.001H3731.39V853.267C3731.39 849.787 3729.65 848.453 3727.21 848.453C3723.73 848.453 3720.54 852.629 3720.54 860.343V872.001H3713.35V842.769ZM3772.68 856.747V859.705H3752.56C3752.73 862.953 3754.99 866.317 3759.46 866.317C3762.77 866.317 3764.8 864.809 3766.54 861.793L3772.34 863.939C3770.07 869.101 3766.13 872.465 3759.05 872.465C3749.02 872.465 3745.02 864.287 3745.02 857.385C3745.02 850.483 3749.02 842.305 3759.05 842.305C3768.8 842.305 3772.68 850.367 3772.68 856.747ZM3759.05 848.453C3755.4 848.453 3753.25 851.237 3752.73 854.021H3765.32C3764.68 851.121 3762.88 848.453 3759.05 848.453ZM3806.16 856.747V859.705H3786.03C3786.21 862.953 3788.47 866.317 3792.94 866.317C3796.24 866.317 3798.27 864.809 3800.01 861.793L3805.81 863.939C3803.55 869.101 3799.61 872.465 3792.53 872.465C3782.5 872.465 3778.49 864.287 3778.49 857.385C3778.49 850.483 3782.5 842.305 3792.53 842.305C3802.27 842.305 3806.16 850.367 3806.16 856.747ZM3792.53 848.453C3788.88 848.453 3786.73 851.237 3786.21 854.021H3798.79C3798.16 851.121 3796.36 848.453 3792.53 848.453ZM3819.83 872.001H3812.64V842.769H3819.83V847.525C3821.92 844.103 3825.17 842.305 3828.47 842.305C3829.75 842.305 3830.85 842.537 3832.01 842.885L3830.68 849.555C3829.81 849.033 3828.88 848.743 3827.66 848.743C3823.49 848.743 3819.83 852.165 3819.83 861.619V872.001ZM3836.33 834.359C3836.33 831.749 3838.3 829.719 3840.97 829.719C3843.64 829.719 3845.61 831.749 3845.61 834.359C3845.61 836.969 3843.64 838.999 3840.97 838.999C3838.3 838.999 3836.33 836.969 3836.33 834.359ZM3837.38 842.769H3844.57V872.001H3837.38V842.769ZM3851.84 842.769H3859.03V847.467C3861.17 844.393 3864.31 842.305 3868.08 842.305C3873.3 842.305 3877.07 845.263 3877.07 851.121V872.001H3869.87V853.267C3869.87 849.787 3868.13 848.453 3865.7 848.453C3862.22 848.453 3859.03 852.629 3859.03 860.343V872.001H3851.84V842.769ZM3885.77 852.165C3885.77 846.075 3890.58 842.305 3896.5 842.305C3898.47 842.305 3900.27 842.769 3901.89 843.581L3907.4 840.681L3910.24 845.437L3906.07 847.525C3906.82 848.859 3907.23 850.425 3907.23 852.165C3907.23 858.313 3902.41 861.909 3896.5 861.909C3894.99 861.909 3893.54 861.677 3892.26 861.271C3891.39 861.793 3890.87 862.547 3890.87 863.475C3890.87 864.867 3891.86 865.621 3893.6 865.621H3899.57C3905.72 865.621 3909.84 868.579 3909.84 874.205C3909.84 881.397 3903.05 884.297 3896.55 884.297C3889.07 884.297 3883.33 881.049 3883.33 874.669C3883.33 872.291 3884.2 870.261 3885.71 868.869C3884.78 867.767 3884.2 866.201 3884.2 864.345C3884.2 861.561 3885.65 859.473 3887.8 858.197C3886.52 856.631 3885.77 854.601 3885.77 852.165ZM3897.95 871.653H3894C3892.78 871.653 3891.68 871.595 3890.64 871.421C3890.17 872.117 3890 872.987 3890 874.089C3890 876.873 3892.78 878.265 3896.55 878.265C3899.98 878.265 3902.64 877.279 3902.64 874.669C3902.64 872.233 3900.67 871.653 3897.95 871.653ZM3892.49 852.165C3892.49 854.543 3894.18 856.109 3896.5 856.109C3898.82 856.109 3900.5 854.543 3900.5 852.165C3900.5 849.729 3898.82 848.105 3896.5 848.105C3894.18 848.105 3892.49 849.729 3892.49 852.165ZM3927.8 857.385C3927.8 848.917 3933.25 842.305 3942.65 842.305C3952.04 842.305 3957.49 848.917 3957.49 857.385C3957.49 865.853 3952.04 872.465 3942.65 872.465C3933.25 872.465 3927.8 865.853 3927.8 857.385ZM3935.34 857.385C3935.34 862.199 3938.01 866.317 3942.65 866.317C3947.29 866.317 3949.95 862.199 3949.95 857.385C3949.95 852.571 3947.29 848.453 3942.65 848.453C3938.01 848.453 3935.34 852.571 3935.34 857.385ZM3963.98 842.769H3971.18V847.467C3973.32 844.393 3976.45 842.305 3980.22 842.305C3985.44 842.305 3989.21 845.263 3989.21 851.121V872.001H3982.02V853.267C3982.02 849.787 3980.28 848.453 3977.85 848.453C3974.37 848.453 3971.18 852.629 3971.18 860.343V872.001H3963.98V842.769ZM4025.69 872.001H4012.99V831.401H4025.69C4035.26 831.401 4044.6 837.491 4044.6 851.701C4044.6 865.911 4035.26 872.001 4025.69 872.001ZM4020.53 865.041H4023.32C4029.81 865.041 4036.95 862.489 4036.95 851.701C4036.95 840.913 4029.81 838.361 4023.32 838.361H4020.53V865.041ZM4049.87 834.359C4049.87 831.749 4051.84 829.719 4054.51 829.719C4057.18 829.719 4059.15 831.749 4059.15 834.359C4059.15 836.969 4057.18 838.999 4054.51 838.999C4051.84 838.999 4049.87 836.969 4049.87 834.359ZM4050.91 842.769H4058.1V872.001H4050.91V842.769ZM4075.32 842.305C4079.26 842.305 4082.68 844.219 4084.48 847.061L4080.19 851.005C4078.86 849.265 4076.94 848.453 4075.32 848.453C4073.93 848.453 4072.65 849.265 4072.65 850.889C4072.65 852.165 4073.69 853.093 4075.43 853.731C4079.44 855.181 4085.99 856.457 4085.99 862.721C4085.99 867.999 4081.93 872.465 4075.61 872.465C4069.52 872.465 4065.46 868.173 4064.01 864.577L4069.75 861.503C4070.79 864.345 4072.77 866.317 4075.61 866.317C4077.81 866.317 4079.2 865.331 4079.2 863.185C4079.2 860.749 4075.43 860.227 4071.9 858.719C4068.71 857.385 4065.98 855.355 4065.98 850.831C4065.98 846.307 4069.63 842.305 4075.32 842.305ZM4120.62 857.385C4120.62 866.375 4116.1 872.465 4107.28 872.465C4104.32 872.465 4101.48 870.957 4100.2 869.333V883.833H4093.01V842.769H4100.2V845.785C4101.02 844.277 4103.68 842.305 4107.28 842.305C4116.1 842.305 4120.62 848.395 4120.62 857.385ZM4113.08 857.385C4113.08 851.585 4110.06 848.453 4106.29 848.453C4102.52 848.453 4099.57 851.585 4099.57 857.385C4099.57 863.185 4102.52 866.317 4106.29 866.317C4110.06 866.317 4113.08 863.185 4113.08 857.385ZM4127.39 830.937H4134.58V872.001H4127.39V830.937ZM4148.23 851.817L4142.14 850.425C4143.07 845.611 4147.31 842.305 4153.28 842.305C4160.24 842.305 4165.58 845.205 4165.58 854.543V872.001H4159.66L4158.91 868.289C4156.88 870.783 4154.09 872.465 4149.92 872.465C4144.93 872.465 4141.04 869.391 4141.04 863.591C4141.04 857.791 4146.15 854.021 4153.51 854.021H4158.38V852.745C4158.38 849.497 4155.95 848.453 4153.28 848.453C4151.25 848.453 4149.16 849.091 4148.23 851.817ZM4148.58 863.475C4148.58 864.867 4149.57 866.317 4151.6 866.317C4154.9 866.317 4158.38 864.055 4158.38 860.285V859.705H4153.57C4150.5 859.705 4148.58 860.865 4148.58 863.475ZM4168.64 842.769H4175.89L4182.67 861.097L4189.05 842.769H4196.24L4181.16 883.833H4174.2L4179.25 870.145L4168.64 842.769ZM4215.99 831.401H4223.53V865.041H4240.76V872.001H4215.99V831.401ZM4250.98 851.817L4244.89 850.425C4245.82 845.611 4250.05 842.305 4256.03 842.305C4262.99 842.305 4268.32 845.205 4268.32 854.543V872.001H4262.41L4261.65 868.289C4259.62 870.783 4256.84 872.465 4252.66 872.465C4247.67 872.465 4243.79 869.391 4243.79 863.591C4243.79 857.791 4248.89 854.021 4256.26 854.021H4261.13V852.745C4261.13 849.497 4258.69 848.453 4256.03 848.453C4254 848.453 4251.91 849.091 4250.98 851.817ZM4251.33 863.475C4251.33 864.867 4252.31 866.317 4254.34 866.317C4257.65 866.317 4261.13 864.055 4261.13 860.285V859.705H4256.32C4253.24 859.705 4251.33 860.865 4251.33 863.475ZM4303.12 857.385C4303.12 866.375 4298.59 872.465 4289.78 872.465C4286.18 872.465 4283.51 870.493 4282.7 868.985V872.001H4275.51V830.937H4282.7V845.437C4283.98 843.813 4286.82 842.305 4289.78 842.305C4298.59 842.305 4303.12 848.395 4303.12 857.385ZM4295.58 857.385C4295.58 851.585 4292.56 848.453 4288.79 848.453C4285.02 848.453 4282.06 851.585 4282.06 857.385C4282.06 863.185 4285.02 866.317 4288.79 866.317C4292.56 866.317 4295.58 863.185 4295.58 857.385Z" fill="black"/>
<path d="M2451.22 938.4H2476.91V945.36H2458.76V954.64H2473.38V961.6H2458.76V979H2451.22V938.4ZM2478.91 964.384C2478.91 955.916 2484.36 949.304 2493.76 949.304C2503.15 949.304 2508.61 955.916 2508.61 964.384C2508.61 972.852 2503.15 979.464 2493.76 979.464C2484.36 979.464 2478.91 972.852 2478.91 964.384ZM2486.45 964.384C2486.45 969.198 2489.12 973.316 2493.76 973.316C2498.4 973.316 2501.07 969.198 2501.07 964.384C2501.07 959.57 2498.4 955.452 2493.76 955.452C2489.12 955.452 2486.45 959.57 2486.45 964.384ZM2510.8 949.768H2518.05L2524.84 968.096L2531.22 949.768H2538.41L2523.33 990.832H2516.37L2521.41 977.144L2510.8 949.768ZM2567.92 963.746V966.704H2547.79C2547.97 969.952 2550.23 973.316 2554.69 973.316C2558 973.316 2560.03 971.808 2561.77 968.792L2567.57 970.938C2565.31 976.1 2561.36 979.464 2554.29 979.464C2544.25 979.464 2540.25 971.286 2540.25 964.384C2540.25 957.482 2544.25 949.304 2554.29 949.304C2564.03 949.304 2567.92 957.366 2567.92 963.746ZM2554.29 955.452C2550.63 955.452 2548.49 958.236 2547.97 961.02H2560.55C2559.91 958.12 2558.12 955.452 2554.29 955.452ZM2581.59 979H2574.4V949.768H2581.59V954.524C2583.68 951.102 2586.93 949.304 2590.23 949.304C2591.51 949.304 2592.61 949.536 2593.77 949.884L2592.44 956.554C2591.57 956.032 2590.64 955.742 2589.42 955.742C2585.25 955.742 2581.59 959.164 2581.59 968.618V979ZM2613.84 938.4H2621.38V972.04H2638.6V979H2613.84V938.4ZM2669.87 963.746V966.704H2649.74C2649.92 969.952 2652.18 973.316 2656.65 973.316C2659.95 973.316 2661.98 971.808 2663.72 968.792L2669.52 970.938C2667.26 976.1 2663.32 979.464 2656.24 979.464C2646.21 979.464 2642.2 971.286 2642.2 964.384C2642.2 957.482 2646.21 949.304 2656.24 949.304C2665.98 949.304 2669.87 957.366 2669.87 963.746ZM2656.24 955.452C2652.59 955.452 2650.44 958.236 2649.92 961.02H2662.5C2661.87 958.12 2660.07 955.452 2656.24 955.452ZM2672.63 949.768H2679.88L2685.79 970.126L2691.71 949.768H2698.96L2689.04 979H2682.54L2672.63 949.768ZM2728.89 963.746V966.704H2708.76C2708.94 969.952 2711.2 973.316 2715.67 973.316C2718.97 973.316 2721 971.808 2722.74 968.792L2728.54 970.938C2726.28 976.1 2722.34 979.464 2715.26 979.464C2705.23 979.464 2701.22 971.286 2701.22 964.384C2701.22 957.482 2705.23 949.304 2715.26 949.304C2725 949.304 2728.89 957.366 2728.89 963.746ZM2715.26 955.452C2711.61 955.452 2709.46 958.236 2708.94 961.02H2721.52C2720.89 958.12 2719.09 955.452 2715.26 955.452ZM2735.26 937.936H2742.45V979H2735.26V937.936ZM2777.1 938.4H2780.29V979H2772.98V948.608L2765.21 953.248V945.36L2777.1 938.4Z" fill="black"/>
<path d="M4541.48 921.4H4544.67V962H4537.36V931.608L4529.59 936.248V928.36L4541.48 921.4ZM4564.13 921.4H4567.32V962H4560.02V931.608L4552.24 936.248V928.36L4564.13 921.4ZM4589.2 920.936C4596.1 920.936 4600.86 925.982 4600.86 932.014C4600.86 935.32 4599.47 938.22 4597.03 940.134C4600.34 941.99 4602.43 945.296 4602.43 949.878C4602.43 957.766 4596.28 962.464 4589.2 962.464C4582.13 962.464 4575.98 957.766 4575.98 949.878C4575.98 945.296 4578.01 941.99 4581.31 940.134C4578.88 938.22 4577.54 935.32 4577.54 932.014C4577.54 925.982 4582.3 920.936 4589.2 920.936ZM4589.2 944.02C4585.9 944.02 4583.29 946.108 4583.29 949.878C4583.29 953.648 4585.9 955.736 4589.2 955.736C4592.51 955.736 4595.12 953.648 4595.12 949.878C4595.12 946.108 4592.51 944.02 4589.2 944.02ZM4589.2 927.084C4586.24 927.084 4584.33 929.114 4584.33 932.13C4584.33 935.204 4586.24 937.292 4589.2 937.292C4592.16 937.292 4594.07 935.204 4594.07 932.13C4594.07 929.114 4592.16 927.084 4589.2 927.084ZM4624.57 946.746V940.482H4646.2V946.746H4624.57ZM4450.41 1034V993.4H4458.87L4468.44 1018.75L4478.01 993.4H4486.48V1034H4478.94V1008.94L4471.17 1030.29H4465.72L4457.95 1008.94V1034H4450.41ZM4521.22 1018.75V1021.7H4501.1C4501.27 1024.95 4503.53 1028.32 4508 1028.32C4511.31 1028.32 4513.34 1026.81 4515.08 1023.79L4520.88 1025.94C4518.61 1031.1 4514.67 1034.46 4507.59 1034.46C4497.56 1034.46 4493.56 1026.29 4493.56 1019.38C4493.56 1012.48 4497.56 1004.3 4507.59 1004.3C4517.34 1004.3 4521.22 1012.37 4521.22 1018.75ZM4507.59 1010.45C4503.94 1010.45 4501.79 1013.24 4501.27 1016.02H4513.86C4513.22 1013.12 4511.42 1010.45 4507.59 1010.45ZM4548.15 1023.5L4554.58 1026.11C4552.38 1031.62 4547.8 1034.46 4541.3 1034.46C4531.79 1034.46 4527.03 1027.62 4527.03 1019.38C4527.03 1011.15 4531.79 1004.3 4541.3 1004.3C4547.8 1004.3 4552.38 1007.15 4554.58 1012.66L4548.15 1015.27C4546.64 1012.19 4544.55 1010.45 4541.3 1010.45C4536.78 1010.45 4534.57 1014.22 4534.57 1019.38C4534.57 1024.55 4536.78 1028.32 4541.3 1028.32C4544.55 1028.32 4546.64 1026.58 4548.15 1023.5ZM4560.39 992.936H4567.58V1009.47C4569.44 1006.51 4572.63 1004.3 4576.86 1004.3C4582.37 1004.3 4585.97 1007.15 4585.97 1013.12V1034H4578.77V1015.67C4578.77 1012.13 4577.38 1010.45 4574.42 1010.45C4571.12 1010.45 4567.58 1013.76 4567.58 1021.65V1034H4560.39V992.936ZM4599.41 1013.82L4593.32 1012.42C4594.25 1007.61 4598.48 1004.3 4604.46 1004.3C4611.42 1004.3 4616.75 1007.2 4616.75 1016.54V1034H4610.84L4610.08 1030.29C4608.05 1032.78 4605.27 1034.46 4601.09 1034.46C4596.11 1034.46 4592.22 1031.39 4592.22 1025.59C4592.22 1019.79 4597.32 1016.02 4604.69 1016.02H4609.56V1014.74C4609.56 1011.5 4607.13 1010.45 4604.46 1010.45C4602.43 1010.45 4600.34 1011.09 4599.41 1013.82ZM4599.76 1025.47C4599.76 1026.87 4600.75 1028.32 4602.78 1028.32C4606.08 1028.32 4609.56 1026.05 4609.56 1022.28V1021.7H4604.75C4601.67 1021.7 4599.76 1022.86 4599.76 1025.47ZM4623.49 1004.77H4630.68V1009.47C4632.82 1006.39 4635.96 1004.3 4639.73 1004.3C4644.95 1004.3 4648.72 1007.26 4648.72 1013.12V1034H4641.52V1015.27C4641.52 1011.79 4639.78 1010.45 4637.35 1010.45C4633.87 1010.45 4630.68 1014.63 4630.68 1022.34V1034H4623.49V1004.77ZM4654.43 996.358C4654.43 993.748 4656.4 991.718 4659.07 991.718C4661.74 991.718 4663.71 993.748 4663.71 996.358C4663.71 998.968 4661.74 1001 4659.07 1001C4656.4 1001 4654.43 998.968 4654.43 996.358ZM4655.47 1004.77H4662.66V1034H4655.47V1004.77ZM4690.71 1023.5L4697.15 1026.11C4694.94 1031.62 4690.36 1034.46 4683.87 1034.46C4674.35 1034.46 4669.6 1027.62 4669.6 1019.38C4669.6 1011.15 4674.35 1004.3 4683.87 1004.3C4690.36 1004.3 4694.94 1007.15 4697.15 1012.66L4690.71 1015.27C4689.2 1012.19 4687.11 1010.45 4683.87 1010.45C4679.34 1010.45 4677.14 1014.22 4677.14 1019.38C4677.14 1024.55 4679.34 1028.32 4683.87 1028.32C4687.11 1028.32 4689.2 1026.58 4690.71 1023.5ZM4708.73 1013.82L4702.64 1012.42C4703.57 1007.61 4707.8 1004.3 4713.77 1004.3C4720.73 1004.3 4726.07 1007.2 4726.07 1016.54V1034H4720.15L4719.4 1030.29C4717.37 1032.78 4714.59 1034.46 4710.41 1034.46C4705.42 1034.46 4701.54 1031.39 4701.54 1025.59C4701.54 1019.79 4706.64 1016.02 4714.01 1016.02H4718.88V1014.74C4718.88 1011.5 4716.44 1010.45 4713.77 1010.45C4711.74 1010.45 4709.66 1011.09 4708.73 1013.82ZM4709.08 1025.47C4709.08 1026.87 4710.06 1028.32 4712.09 1028.32C4715.4 1028.32 4718.88 1026.05 4718.88 1022.28V1021.7H4714.06C4710.99 1021.7 4709.08 1022.86 4709.08 1025.47ZM4733.2 992.936H4740.39V1034H4733.2V992.936ZM4459.28 1072.3L4453.19 1076.19C4451.62 1073.17 4449.94 1071.9 4447.56 1071.9C4445.36 1071.9 4443.67 1073.46 4443.67 1075.61C4443.67 1082.68 4461.02 1081.76 4461.02 1093.82C4461.02 1101.77 4455.8 1106.46 4448.02 1106.46C4440.66 1106.46 4435.32 1101.3 4434.05 1095.1L4440.14 1091.27C4441.35 1095.62 4443.79 1099.5 4448.2 1099.5C4451.33 1099.5 4453.48 1097.94 4453.48 1094.23C4453.48 1087.5 4436.48 1088.83 4436.48 1075.96C4436.48 1069.81 4441.18 1064.94 4447.56 1064.94C4452.95 1064.94 4457.07 1067.6 4459.28 1072.3ZM4492.07 1106H4484.87V1101.3C4482.73 1104.38 4479.6 1106.46 4475.83 1106.46C4470.61 1106.46 4466.84 1103.51 4466.84 1097.65V1076.77H4474.03V1095.5C4474.03 1098.98 4475.77 1100.32 4478.2 1100.32C4481.68 1100.32 4484.87 1096.14 4484.87 1088.43V1076.77H4492.07V1106ZM4527.59 1091.38C4527.59 1100.37 4523.06 1106.46 4514.25 1106.46C4511.29 1106.46 4508.45 1104.96 4507.17 1103.33V1117.83H4499.98V1076.77H4507.17V1079.78C4507.98 1078.28 4510.65 1076.3 4514.25 1076.3C4523.06 1076.3 4527.59 1082.39 4527.59 1091.38ZM4520.05 1091.38C4520.05 1085.58 4517.03 1082.45 4513.26 1082.45C4509.49 1082.45 4506.53 1085.58 4506.53 1091.38C4506.53 1097.18 4509.49 1100.32 4513.26 1100.32C4517.03 1100.32 4520.05 1097.18 4520.05 1091.38ZM4562.2 1091.38C4562.2 1100.37 4557.67 1106.46 4548.86 1106.46C4545.9 1106.46 4543.06 1104.96 4541.78 1103.33V1117.83H4534.59V1076.77H4541.78V1079.78C4542.59 1078.28 4545.26 1076.3 4548.86 1076.3C4557.67 1076.3 4562.2 1082.39 4562.2 1091.38ZM4554.66 1091.38C4554.66 1085.58 4551.64 1082.45 4547.87 1082.45C4544.1 1082.45 4541.14 1085.58 4541.14 1091.38C4541.14 1097.18 4544.1 1100.32 4547.87 1100.32C4551.64 1100.32 4554.66 1097.18 4554.66 1091.38ZM4567.56 1091.38C4567.56 1082.92 4573.01 1076.3 4582.41 1076.3C4591.8 1076.3 4597.26 1082.92 4597.26 1091.38C4597.26 1099.85 4591.8 1106.46 4582.41 1106.46C4573.01 1106.46 4567.56 1099.85 4567.56 1091.38ZM4575.1 1091.38C4575.1 1096.2 4577.77 1100.32 4582.41 1100.32C4587.05 1100.32 4589.72 1096.2 4589.72 1091.38C4589.72 1086.57 4587.05 1082.45 4582.41 1082.45C4577.77 1082.45 4575.1 1086.57 4575.1 1091.38ZM4610.77 1106H4603.58V1076.77H4610.77V1081.52C4612.86 1078.1 4616.1 1076.3 4619.41 1076.3C4620.69 1076.3 4621.79 1076.54 4622.95 1076.88L4621.61 1083.55C4620.74 1083.03 4619.82 1082.74 4618.6 1082.74C4614.42 1082.74 4610.77 1086.16 4610.77 1095.62V1106ZM4645.44 1099.62L4647.12 1105.42C4645.5 1106.17 4643.93 1106.46 4642.37 1106.46C4635.75 1106.46 4631.64 1102.93 4631.64 1095.68V1082.92H4627.11V1076.77H4631.64V1069.46L4638.83 1064.94V1076.77H4646.54V1082.92H4638.83V1095.56C4638.83 1099.16 4640.22 1100.32 4642.66 1100.32C4643.64 1100.32 4644.45 1100.14 4645.44 1099.62ZM4668.39 1065.4H4675.93V1099.04H4693.15V1106H4668.39V1065.4ZM4703.38 1085.82L4697.29 1084.42C4698.21 1079.61 4702.45 1076.3 4708.42 1076.3C4715.38 1076.3 4720.72 1079.2 4720.72 1088.54V1106H4714.8L4714.05 1102.29C4712.02 1104.78 4709.23 1106.46 4705.06 1106.46C4700.07 1106.46 4696.18 1103.39 4696.18 1097.59C4696.18 1091.79 4701.29 1088.02 4708.65 1088.02H4713.53V1086.74C4713.53 1083.5 4711.09 1082.45 4708.42 1082.45C4706.39 1082.45 4704.3 1083.09 4703.38 1085.82ZM4703.72 1097.47C4703.72 1098.87 4704.71 1100.32 4706.74 1100.32C4710.05 1100.32 4713.53 1098.05 4713.53 1094.28V1093.7H4708.71C4705.64 1093.7 4703.72 1094.86 4703.72 1097.47ZM4755.51 1091.38C4755.51 1100.37 4750.99 1106.46 4742.17 1106.46C4738.57 1106.46 4735.91 1104.49 4735.09 1102.98V1106H4727.9V1064.94H4735.09V1079.44C4736.37 1077.81 4739.21 1076.3 4742.17 1076.3C4750.99 1076.3 4755.51 1082.39 4755.51 1091.38ZM4747.97 1091.38C4747.97 1085.58 4744.95 1082.45 4741.18 1082.45C4737.41 1082.45 4734.46 1085.58 4734.46 1091.38C4734.46 1097.18 4737.41 1100.32 4741.18 1100.32C4744.95 1100.32 4747.97 1097.18 4747.97 1091.38Z" fill="black"/>
</g>
</g>
<g id="level1-hotspot-container"/>
<defs>
<clipPath id="clip0_1442_586">
<rect width="4828" height="1551" fill="white"/>
</clipPath>
</defs>
</svg>
