<svg width="4828" height="1551" viewBox="0 0 4828 1551" fill="none" xmlns="http://www.w3.org/2000/svg">
<path d="M3247.5 4.5V1539.5H1580.5V4.5H3247.5Z" fill="#D9D9D9" stroke="black" stroke-width="5"/>
<path d="M2332.11 767.192L2326.5 768.632C2325.2 765.224 2322.85 762.776 2318.19 762.776C2313.01 762.776 2308.64 766.424 2308.64 774.2C2308.64 781.976 2313.01 785.624 2318.19 785.624C2322.85 785.624 2325.2 783.176 2326.5 779.768L2332.11 781.208C2330.53 787.64 2325.49 791.384 2318.19 791.384C2309.79 791.384 2302.3 785.432 2302.3 774.2C2302.3 762.968 2309.79 757.016 2318.19 757.016C2325.49 757.016 2330.53 760.76 2332.11 767.192ZM2336.33 778.904C2336.33 771.896 2340.84 766.424 2348.62 766.424C2356.39 766.424 2360.91 771.896 2360.91 778.904C2360.91 785.912 2356.39 791.384 2348.62 791.384C2340.84 791.384 2336.33 785.912 2336.33 778.904ZM2342.57 778.904C2342.57 782.888 2344.78 786.296 2348.62 786.296C2352.46 786.296 2354.67 782.888 2354.67 778.904C2354.67 774.92 2352.46 771.512 2348.62 771.512C2344.78 771.512 2342.57 774.92 2342.57 778.904ZM2387.15 791H2381.2V787.112C2379.42 789.656 2376.83 791.384 2373.71 791.384C2369.39 791.384 2366.27 788.936 2366.27 784.088V766.808H2372.22V782.312C2372.22 785.192 2373.66 786.296 2375.68 786.296C2378.56 786.296 2381.2 782.84 2381.2 776.456V766.808H2387.15V791ZM2399.51 791H2393.56V766.808H2399.51V770.744C2401.24 767.912 2403.93 766.424 2406.66 766.424C2407.72 766.424 2408.63 766.616 2409.59 766.904L2408.49 772.424C2407.77 771.992 2407 771.752 2405.99 771.752C2402.53 771.752 2399.51 774.584 2399.51 782.408V791ZM2428.2 785.72L2429.6 790.52C2428.25 791.144 2426.96 791.384 2425.66 791.384C2420.19 791.384 2416.78 788.456 2416.78 782.456V771.896H2413.04V766.808H2416.78V760.76L2422.73 757.016V766.808H2429.12V771.896H2422.73V782.36C2422.73 785.336 2423.88 786.296 2425.9 786.296C2426.72 786.296 2427.39 786.152 2428.2 785.72ZM2432 766.808H2438L2443.62 781.976L2448.9 766.808H2454.85L2442.37 800.792H2436.61L2440.79 789.464L2432 766.808ZM2462.14 774.296L2457.1 773.144C2457.86 769.16 2461.37 766.424 2466.31 766.424C2472.07 766.424 2476.49 768.824 2476.49 776.552V791H2471.59L2470.97 787.928C2469.29 789.992 2466.98 791.384 2463.53 791.384C2459.4 791.384 2456.18 788.84 2456.18 784.04C2456.18 779.24 2460.41 776.12 2466.5 776.12H2470.54V775.064C2470.54 772.376 2468.52 771.512 2466.31 771.512C2464.63 771.512 2462.9 772.04 2462.14 774.296ZM2462.42 783.944C2462.42 785.096 2463.24 786.296 2464.92 786.296C2467.66 786.296 2470.54 784.424 2470.54 781.304V780.824H2466.55C2464.01 780.824 2462.42 781.784 2462.42 783.944ZM2488.15 791H2482.2V766.808H2488.15V770.744C2489.88 767.912 2492.57 766.424 2495.3 766.424C2496.36 766.424 2497.27 766.616 2498.23 766.904L2497.13 772.424C2496.41 771.992 2495.64 771.752 2494.63 771.752C2491.18 771.752 2488.15 774.584 2488.15 782.408V791ZM2500.77 778.904C2500.77 771.464 2504.51 766.424 2511.81 766.424C2514.26 766.424 2516.61 767.672 2517.66 769.016V757.016H2523.62V791H2517.66V788.504C2516.99 789.752 2514.78 791.384 2511.81 791.384C2504.51 791.384 2500.77 786.344 2500.77 778.904ZM2507.01 778.904C2507.01 783.704 2509.5 786.296 2512.62 786.296C2515.74 786.296 2518.19 783.704 2518.19 778.904C2518.19 774.104 2515.74 771.512 2512.62 771.512C2509.5 771.512 2507.01 774.104 2507.01 778.904Z" fill="black"/>
<g id="courtyard-hotspot-container"/>
</svg>
