<svg width="4828" height="1551" viewBox="0 0 4828 1551" fill="none" xmlns="http://www.w3.org/2000/svg">
<g clip-path="url(#clip0_1036_567)">
<path fill-rule="evenodd" clip-rule="evenodd" d="M3472 4.5L4822 4L4821 882L4822 1546H3805H3472V1385V1172H3358.5V1257.5H2708.5V1157H2420H2169.5L1563 1159.5V1542H-1V2H1407.5V81H1361.5V770.5H2260V674.5H1884V427.5H1715.5V2H2331V63.5H2404.5V770.5H3028V140H3412V770H3470V785H3472V4.5ZM3250 318H3201V767H3250V318Z" fill="#CCCCCC"/>
<rect x="3682" y="781" width="250" height="105" stroke="black" stroke-width="4"/>
<rect x="3886" y="6" width="250" height="105" transform="rotate(90 3886 6)" stroke="black" stroke-width="4"/>
<rect x="4183" y="781" width="250" height="105" stroke="black" stroke-width="4"/>
<rect x="3932" y="781" width="251" height="105" stroke="black" stroke-width="4"/>
<rect x="3886" y="256" width="251" height="105" transform="rotate(90 3886 256)" stroke="black" stroke-width="4"/>
<rect x="3682" y="678" width="250" height="103" stroke="black" stroke-width="4"/>
<rect x="4175" y="6" width="250" height="103" stroke="black" stroke-width="4"/>
<rect x="3989" y="6" width="250" height="103" transform="rotate(90 3989 6)" stroke="black" stroke-width="4"/>
<rect x="4183" y="678" width="250" height="103" stroke="black" stroke-width="4"/>
<rect x="3932" y="678" width="251" height="103" stroke="black" stroke-width="4"/>
<rect x="4425" y="6" width="251" height="103" stroke="black" stroke-width="4"/>
<rect x="4363.75" y="414.096" width="187.364" height="94.569" transform="rotate(-80.0429 4363.75 414.096)" stroke="black" stroke-width="4"/>
<rect x="4668" y="470" width="159" height="82" transform="rotate(90 4668 470)" stroke="black" stroke-width="4"/>
<rect x="3989" y="256" width="251" height="103" transform="rotate(90 3989 256)" stroke="black" stroke-width="4"/>
<rect x="3701" y="1201" width="250" height="105" stroke="black" stroke-width="4"/>
<rect x="4202" y="1201" width="250" height="105" stroke="black" stroke-width="4"/>
<rect x="3951" y="1201" width="251" height="105" stroke="black" stroke-width="4"/>
<rect x="3701" y="1098" width="250" height="103" stroke="black" stroke-width="4"/>
<rect x="4202" y="1098" width="250" height="103" stroke="black" stroke-width="4"/>
<rect x="3951" y="1098" width="251" height="103" stroke="black" stroke-width="4"/>
<rect x="50" y="243" width="219" height="77" stroke="black" stroke-width="4"/>
<rect x="192" y="331" width="77" height="157" stroke="black" stroke-width="4"/>
<path d="M1886.5 428.5H1716V4H2332.5V62.5" stroke="black" stroke-width="8"/>
<path d="M2290 771L1673 771.001" stroke="black" stroke-width="8"/>
<path d="M1672.5 951V1158.5H1564V1549H4V4H1409V82H1362V771H1672.5V792" stroke="black" stroke-width="8"/>
<path d="M1571.59 790.345L1673 790.345" stroke="black" stroke-width="6"/>
<path d="M1673 890C1616.67 890 1571 844.333 1571 788" stroke="black" stroke-width="2"/>
<path d="M1609.37 952.529L1673 952.529" stroke="black" stroke-width="6"/>
<path d="M1673 890C1637.65 890 1609 918.654 1609 954" stroke="black" stroke-width="2"/>
<path d="M3574.41 948.655L3473 948.655" stroke="black" stroke-width="6"/>
<path d="M3473 849C3529.33 849 3575 894.667 3575 951" stroke="black" stroke-width="2"/>
<path d="M3536.63 786.471L3473 786.471" stroke="black" stroke-width="6"/>
<path d="M3473 849C3508.35 849 3537 820.346 3537 785" stroke="black" stroke-width="2"/>
<path d="M3473 787V4H4824.5V1547H3473V947.5" stroke="black" stroke-width="8"/>
<path d="M2390 771H3029.5V144H3414.5V771H3473M3473 1172.5H3359V1257.5H2709V1158.5H2421H1672.5" stroke="black" stroke-width="8"/>
<rect x="3202" y="322" width="49" height="449" stroke="black" stroke-width="8"/>
<rect x="3030" y="743.646" width="173" height="30.3547" stroke="black" stroke-width="2"/>
<rect x="3030" y="623.546" width="173" height="30.3547" stroke="black" stroke-width="2"/>
<rect x="3030" y="682.936" width="173" height="30.3547" stroke="black" stroke-width="2"/>
<rect x="3030" y="562.837" width="173" height="30.3547" stroke="black" stroke-width="2"/>
<rect x="3030" y="713.291" width="173" height="30.3547" stroke="black" stroke-width="2"/>
<rect x="3030" y="593.192" width="173" height="30.3547" stroke="black" stroke-width="2"/>
<rect x="3030" y="653.901" width="173" height="29.0349" stroke="black" stroke-width="2"/>
<rect x="3030" y="532.482" width="173" height="30.3547" stroke="black" stroke-width="2"/>
<rect x="3030" y="502.128" width="173" height="30.3547" stroke="black" stroke-width="2"/>
<rect x="3030" y="380.709" width="173" height="30.3547" stroke="black" stroke-width="2"/>
<rect x="3030" y="441.418" width="173" height="30.3547" stroke="black" stroke-width="2"/>
<rect x="3030" y="320" width="173" height="30.3547" stroke="black" stroke-width="2"/>
<rect x="3030" y="471.773" width="173" height="30.3547" stroke="black" stroke-width="2"/>
<rect x="3030" y="350.354" width="173" height="30.3547" stroke="black" stroke-width="2"/>
<rect x="3030" y="411.064" width="173" height="30.3547" stroke="black" stroke-width="2"/>
<rect x="3252" y="743.646" width="162" height="30.3547" stroke="black" stroke-width="2"/>
<rect x="3252" y="623.547" width="162" height="30.3547" stroke="black" stroke-width="2"/>
<rect x="3252" y="682.936" width="162" height="30.3547" stroke="black" stroke-width="2"/>
<rect x="3252" y="562.837" width="162" height="30.3547" stroke="black" stroke-width="2"/>
<rect x="3252" y="713.291" width="162" height="30.3547" stroke="black" stroke-width="2"/>
<rect x="3252" y="593.192" width="162" height="30.3547" stroke="black" stroke-width="2"/>
<rect x="3252" y="653.901" width="162" height="29.0349" stroke="black" stroke-width="2"/>
<rect x="3252" y="532.483" width="162" height="30.3547" stroke="black" stroke-width="2"/>
<rect x="3252" y="502.128" width="162" height="30.3547" stroke="black" stroke-width="2"/>
<rect x="3252" y="380.709" width="162" height="30.3547" stroke="black" stroke-width="2"/>
<rect x="3252" y="441.419" width="162" height="30.3547" stroke="black" stroke-width="2"/>
<rect x="3252" y="471.773" width="162" height="30.3547" stroke="black" stroke-width="2"/>
<rect x="3252" y="411.064" width="162" height="30.3547" stroke="black" stroke-width="2"/>
<path d="M2389.66 672.586L2389.66 774" stroke="black" stroke-width="6"/>
<path d="M2290 774C2290 717.667 2335.67 672 2392 672" stroke="black" stroke-width="2"/>
<path d="M2311.66 530.414L2311.66 429" stroke="black" stroke-width="6"/>
<path d="M2212 429C2212 485.333 2257.67 531 2314 531" stroke="black" stroke-width="2"/>
<path d="M2261 771.5V675H1885.5V429H2212.5M2406 771.5V63H2332.5V429H2309" stroke="black" stroke-width="8"/>
<rect x="612" y="351" width="187" height="97" stroke="black" stroke-width="4"/>
<rect x="614" y="759" width="188" height="97" stroke="black" stroke-width="4"/>
<rect x="663" y="1163" width="186" height="97" stroke="black" stroke-width="4"/>
<rect x="991" y="759" width="188" height="97" stroke="black" stroke-width="4"/>
<rect x="1041" y="351" width="187" height="97" stroke="black" stroke-width="4"/>
<rect x="1036" y="1163" width="186" height="97" stroke="black" stroke-width="4"/>
<rect x="425" y="759" width="189" height="97" stroke="black" stroke-width="4"/>
<rect x="802" y="759" width="189" height="97" stroke="black" stroke-width="4"/>
<rect x="425" y="351" width="187" height="97" stroke="black" stroke-width="4"/>
<rect x="476" y="1163" width="187" height="97" stroke="black" stroke-width="4"/>
<rect x="289" y="1163" width="187" height="97" stroke="black" stroke-width="4"/>
<rect x="854" y="351" width="187" height="97" stroke="black" stroke-width="4"/>
<rect x="849" y="1163" width="187" height="97" stroke="black" stroke-width="4"/>
<rect x="614" y="663" width="188" height="96" stroke="black" stroke-width="4"/>
<rect x="991" y="663" width="188" height="96" stroke="black" stroke-width="4"/>
<rect x="1979" y="459" width="188" height="89" transform="rotate(90 1979 459)" stroke="black" stroke-width="4"/>
<rect x="2238" y="670" width="123" height="57" transform="rotate(-180 2238 670)" stroke="black" stroke-width="4"/>
<rect x="612" y="255" width="187" height="96" stroke="black" stroke-width="4"/>
<rect x="663" y="1067" width="186" height="96" stroke="black" stroke-width="4"/>
<rect x="1041" y="255" width="187" height="96" stroke="black" stroke-width="4"/>
<rect x="425" y="663" width="189" height="96" stroke="black" stroke-width="4"/>
<rect x="296" y="669" width="187" height="131" transform="rotate(90 296 669)" stroke="black" stroke-width="4"/>
<rect x="1036" y="1067" width="186" height="96" stroke="black" stroke-width="4"/>
<rect x="1562" y="1170" width="377" height="96" transform="rotate(90 1562 1170)" stroke="black" stroke-width="4"/>
<rect x="802" y="663" width="189" height="96" stroke="black" stroke-width="4"/>
<rect x="425" y="255" width="187" height="96" stroke="black" stroke-width="4"/>
<rect x="476" y="1067" width="187" height="96" stroke="black" stroke-width="4"/>
<rect x="289" y="1067" width="187" height="96" stroke="black" stroke-width="4"/>
<rect x="854" y="255" width="187" height="96" stroke="black" stroke-width="4"/>
<rect x="849" y="1067" width="187" height="96" stroke="black" stroke-width="4"/>
<path d="M1774.67 188.748L1781.69 187.82C1782.56 191.416 1784.59 193.736 1788.24 193.736C1792.01 193.736 1794.68 191.126 1794.68 186.95C1794.68 182.252 1791.95 179.816 1788.3 179.816C1787.02 179.816 1785.98 180.048 1784.76 180.686L1781.86 176.626L1789.52 166.128H1776.58V159.4H1799.84V161.952L1790.27 174.886C1790.79 174.828 1791.2 174.77 1791.89 174.77C1798.16 174.77 1801.99 179.7 1801.99 186.834C1801.99 195.244 1796.07 200.464 1788.24 200.464C1780.7 200.464 1775.36 195.534 1774.67 188.748ZM1823.74 158.936C1833.42 158.936 1838.7 166.708 1838.7 179.7C1838.7 192.692 1833.42 200.464 1823.74 200.464C1814.05 200.464 1808.77 192.692 1808.77 179.7C1808.77 166.708 1814.05 158.936 1823.74 158.936ZM1823.74 165.664C1818.4 165.664 1815.97 170.652 1815.97 179.7C1815.97 188.748 1818.4 193.736 1823.74 193.736C1829.07 193.736 1831.51 188.748 1831.51 179.7C1831.51 170.652 1829.07 165.664 1823.74 165.664ZM1858.85 185.384H1857.92C1850.49 185.384 1844.81 180.048 1844.81 172.16C1844.81 164.62 1850.61 158.936 1858.38 158.936C1866.04 158.936 1871.95 164.562 1871.95 172.16C1871.95 174.596 1871.14 177.264 1869.98 179.294L1858.15 200.464H1850.03L1858.85 185.384ZM1858.38 178.656C1861.86 178.656 1864.65 176.336 1864.65 172.16C1864.65 168.216 1861.8 165.664 1858.38 165.664C1854.9 165.664 1852.12 168.216 1852.12 172.16C1852.12 176.336 1854.9 178.656 1858.38 178.656ZM1893.23 184.746V178.482H1914.86V184.746H1893.23ZM1965.38 170.942C1965.38 176.278 1962.71 180.338 1957.78 181.846L1969.03 200H1960.62L1949.72 182.484H1945.78V200H1938.24V159.4H1953.03C1961.15 159.4 1965.38 164.214 1965.38 170.942ZM1953.08 175.524C1955.81 175.524 1957.84 174.248 1957.84 170.942C1957.84 167.636 1955.81 166.36 1953.08 166.36H1945.78V175.524H1953.08ZM1974.37 159.4H2000.07V166.36H1981.91V175.64H1996.53V182.6H1981.91V200H1974.37V159.4ZM2054.91 171.232L2048.12 172.972C2046.56 168.854 2043.72 165.896 2038.09 165.896C2031.83 165.896 2026.55 170.304 2026.55 179.7C2026.55 189.096 2031.83 193.504 2038.09 193.504C2043.72 193.504 2046.56 190.546 2048.12 186.428L2054.91 188.168C2053 195.94 2046.91 200.464 2038.09 200.464C2027.94 200.464 2018.89 193.272 2018.89 179.7C2018.89 166.128 2027.94 158.936 2038.09 158.936C2046.91 158.936 2053 163.46 2054.91 171.232ZM2061.13 158.936H2068.33V175.466C2070.18 172.508 2073.37 170.304 2077.61 170.304C2083.12 170.304 2086.71 173.146 2086.71 179.12V200H2079.52V181.672C2079.52 178.134 2078.13 176.452 2075.17 176.452C2071.86 176.452 2068.33 179.758 2068.33 187.646V200H2061.13V158.936ZM2100.16 179.816L2094.07 178.424C2094.99 173.61 2099.23 170.304 2105.2 170.304C2112.16 170.304 2117.5 173.204 2117.5 182.542V200H2111.58L2110.83 196.288C2108.8 198.782 2106.01 200.464 2101.84 200.464C2096.85 200.464 2092.96 197.39 2092.96 191.59C2092.96 185.79 2098.07 182.02 2105.43 182.02H2110.31V180.744C2110.31 177.496 2107.87 176.452 2105.2 176.452C2103.17 176.452 2101.08 177.09 2100.16 179.816ZM2100.5 191.474C2100.5 192.866 2101.49 194.316 2103.52 194.316C2106.83 194.316 2110.31 192.054 2110.31 188.284V187.704H2105.49C2102.42 187.704 2100.5 188.864 2100.5 191.474ZM2149.1 200H2141.91V180.512C2141.91 177.554 2140.46 176.452 2138.31 176.452C2134.77 176.452 2131.99 180.57 2131.99 189.27V200H2124.8V170.768H2131.99V175.466C2134.14 172.218 2136.63 170.304 2140.4 170.304C2144 170.304 2147.3 172.102 2148.58 176.336C2150.67 172.566 2153.91 170.304 2157.51 170.304C2162.96 170.304 2166.21 173.668 2166.21 179.294V200H2159.02V180.512C2159.02 177.554 2157.57 176.452 2155.42 176.452C2151.94 176.452 2149.1 180.396 2149.1 188.632V200ZM2201.85 185.384C2201.85 194.374 2197.33 200.464 2188.51 200.464C2184.92 200.464 2182.25 198.492 2181.44 196.984V200H2174.24V158.936H2181.44V173.436C2182.71 171.812 2185.55 170.304 2188.51 170.304C2197.33 170.304 2201.85 176.394 2201.85 185.384ZM2194.31 185.384C2194.31 179.584 2191.3 176.452 2187.53 176.452C2183.76 176.452 2180.8 179.584 2180.8 185.384C2180.8 191.184 2183.76 194.316 2187.53 194.316C2191.3 194.316 2194.31 191.184 2194.31 185.384ZM2234.88 184.746V187.704H2214.76C2214.93 190.952 2217.19 194.316 2221.66 194.316C2224.96 194.316 2226.99 192.808 2228.73 189.792L2234.53 191.938C2232.27 197.1 2228.33 200.464 2221.25 200.464C2211.22 200.464 2207.22 192.286 2207.22 185.384C2207.22 178.482 2211.22 170.304 2221.25 170.304C2231 170.304 2234.88 178.366 2234.88 184.746ZM2221.25 176.452C2217.6 176.452 2215.45 179.236 2214.93 182.02H2227.52C2226.88 179.12 2225.08 176.452 2221.25 176.452ZM2248.56 200H2241.36V170.768H2248.56V175.524C2250.64 172.102 2253.89 170.304 2257.2 170.304C2258.47 170.304 2259.58 170.536 2260.74 170.884L2259.4 177.554C2258.53 177.032 2257.6 176.742 2256.39 176.742C2252.21 176.742 2248.56 180.164 2248.56 189.618V200ZM1977.5 242.942C1977.5 248.278 1974.83 252.338 1969.9 253.846L1981.16 272H1972.75L1961.84 254.484H1957.9V272H1950.36V231.4H1965.15C1973.27 231.4 1977.5 236.214 1977.5 242.942ZM1965.21 247.524C1967.93 247.524 1969.96 246.248 1969.96 242.942C1969.96 239.636 1967.93 238.36 1965.21 238.36H1957.9V247.524H1965.21ZM1984.62 257.384C1984.62 248.916 1990.07 242.304 1999.47 242.304C2008.86 242.304 2014.31 248.916 2014.31 257.384C2014.31 265.852 2008.86 272.464 1999.47 272.464C1990.07 272.464 1984.62 265.852 1984.62 257.384ZM1992.16 257.384C1992.16 262.198 1994.83 266.316 1999.47 266.316C2004.11 266.316 2006.77 262.198 2006.77 257.384C2006.77 252.57 2004.11 248.452 1999.47 248.452C1994.83 248.452 1992.16 252.57 1992.16 257.384ZM2019.68 257.384C2019.68 248.916 2025.13 242.304 2034.53 242.304C2043.92 242.304 2049.37 248.916 2049.37 257.384C2049.37 265.852 2043.92 272.464 2034.53 272.464C2025.13 272.464 2019.68 265.852 2019.68 257.384ZM2027.22 257.384C2027.22 262.198 2029.89 266.316 2034.53 266.316C2039.17 266.316 2041.83 262.198 2041.83 257.384C2041.83 252.57 2039.17 248.452 2034.53 248.452C2029.89 248.452 2027.22 252.57 2027.22 257.384ZM2080.56 272H2073.37V252.512C2073.37 249.554 2071.92 248.452 2069.78 248.452C2066.24 248.452 2063.45 252.57 2063.45 261.27V272H2056.26V242.768H2063.45V247.466C2065.6 244.218 2068.09 242.304 2071.86 242.304C2075.46 242.304 2078.77 244.102 2080.04 248.336C2082.13 244.566 2085.38 242.304 2088.97 242.304C2094.43 242.304 2097.67 245.668 2097.67 251.294V272H2090.48V252.512C2090.48 249.554 2089.03 248.452 2086.89 248.452C2083.41 248.452 2080.56 252.396 2080.56 260.632V272Z" fill="black"/>
<path d="M3768.25 939.748L3775.27 938.82C3776.14 942.416 3778.17 944.736 3781.82 944.736C3785.59 944.736 3788.26 942.126 3788.26 937.95C3788.26 933.252 3785.53 930.816 3781.88 930.816C3780.6 930.816 3779.56 931.048 3778.34 931.686L3775.44 927.626L3783.1 917.128H3770.16V910.4H3793.42V912.952L3783.85 925.886C3784.37 925.828 3784.78 925.77 3785.47 925.77C3791.74 925.77 3795.57 930.7 3795.57 937.834C3795.57 946.244 3789.65 951.464 3781.82 951.464C3774.28 951.464 3768.94 946.534 3768.25 939.748ZM3812.5 910.4H3815.69V951H3808.38V920.608L3800.61 925.248V917.36L3812.5 910.4ZM3839.24 909.936C3848.92 909.936 3854.2 917.708 3854.2 930.7C3854.2 943.692 3848.92 951.464 3839.24 951.464C3829.55 951.464 3824.27 943.692 3824.27 930.7C3824.27 917.708 3829.55 909.936 3839.24 909.936ZM3839.24 916.664C3833.9 916.664 3831.47 921.652 3831.47 930.7C3831.47 939.748 3833.9 944.736 3839.24 944.736C3844.57 944.736 3847.01 939.748 3847.01 930.7C3847.01 921.652 3844.57 916.664 3839.24 916.664ZM3875.93 935.746V929.482H3897.57V935.746H3875.93ZM3920.94 910.4H3946.05V917.36H3928.48V925.886H3942.57V932.846H3928.48V944.04H3946.63V951H3920.94V910.4ZM3953.72 921.768H3960.91V926.466C3963.06 923.392 3966.19 921.304 3969.96 921.304C3975.18 921.304 3978.95 924.262 3978.95 930.12V951H3971.76V932.266C3971.76 928.786 3970.02 927.452 3967.58 927.452C3964.1 927.452 3960.91 931.628 3960.91 939.342V951H3953.72V921.768ZM4013.06 935.746V938.704H3992.93C3993.1 941.952 3995.37 945.316 3999.83 945.316C4003.14 945.316 4005.17 943.808 4006.91 940.792L4012.71 942.938C4010.45 948.1 4006.5 951.464 3999.43 951.464C3989.39 951.464 3985.39 943.286 3985.39 936.384C3985.39 929.482 3989.39 921.304 3999.43 921.304C4009.17 921.304 4013.06 929.366 4013.06 935.746ZM3999.43 927.452C3995.77 927.452 3993.63 930.236 3993.1 933.02H4005.69C4005.05 930.12 4003.25 927.452 3999.43 927.452ZM4026.73 951H4019.54V921.768H4026.73V926.524C4028.82 923.102 4032.07 921.304 4035.37 921.304C4036.65 921.304 4037.75 921.536 4038.91 921.884L4037.58 928.554C4036.71 928.032 4035.78 927.742 4034.56 927.742C4030.38 927.742 4026.73 931.164 4026.73 940.618V951ZM4044.07 931.164C4044.07 925.074 4048.88 921.304 4054.8 921.304C4056.77 921.304 4058.57 921.768 4060.19 922.58L4065.7 919.68L4068.54 924.436L4064.37 926.524C4065.12 927.858 4065.53 929.424 4065.53 931.164C4065.53 937.312 4060.71 940.908 4054.8 940.908C4053.29 940.908 4051.84 940.676 4050.56 940.27C4049.69 940.792 4049.17 941.546 4049.17 942.474C4049.17 943.866 4050.16 944.62 4051.9 944.62H4057.87C4064.02 944.62 4068.14 947.578 4068.14 953.204C4068.14 960.396 4061.35 963.296 4054.85 963.296C4047.37 963.296 4041.63 960.048 4041.63 953.668C4041.63 951.29 4042.5 949.26 4044.01 947.868C4043.08 946.766 4042.5 945.2 4042.5 943.344C4042.5 940.56 4043.95 938.472 4046.1 937.196C4044.82 935.63 4044.07 933.6 4044.07 931.164ZM4056.25 950.652H4052.3C4051.08 950.652 4049.98 950.594 4048.94 950.42C4048.47 951.116 4048.3 951.986 4048.3 953.088C4048.3 955.872 4051.08 957.264 4054.85 957.264C4058.28 957.264 4060.94 956.278 4060.94 953.668C4060.94 951.232 4058.97 950.652 4056.25 950.652ZM4050.79 931.164C4050.79 933.542 4052.48 935.108 4054.8 935.108C4057.12 935.108 4058.8 933.542 4058.8 931.164C4058.8 928.728 4057.12 927.104 4054.8 927.104C4052.48 927.104 4050.79 928.728 4050.79 931.164ZM4072.28 921.768H4079.53L4086.32 940.096L4092.7 921.768H4099.89L4084.81 962.832H4077.85L4082.89 949.144L4072.28 921.768ZM4123.81 930.816L4117.72 929.424C4118.65 924.61 4122.88 921.304 4128.86 921.304C4135.82 921.304 4141.15 924.204 4141.15 933.542V951H4135.24L4134.48 947.288C4132.45 949.782 4129.67 951.464 4125.49 951.464C4120.51 951.464 4116.62 948.39 4116.62 942.59C4116.62 936.79 4121.72 933.02 4129.09 933.02H4133.96V931.744C4133.96 928.496 4131.53 927.452 4128.86 927.452C4126.83 927.452 4124.74 928.09 4123.81 930.816ZM4124.16 942.474C4124.16 943.866 4125.15 945.316 4127.18 945.316C4130.48 945.316 4133.96 943.054 4133.96 939.284V938.704H4129.15C4126.07 938.704 4124.16 939.864 4124.16 942.474ZM4147.89 921.768H4155.08V926.466C4157.22 923.392 4160.36 921.304 4164.13 921.304C4169.35 921.304 4173.12 924.262 4173.12 930.12V951H4165.92V932.266C4165.92 928.786 4164.18 927.452 4161.75 927.452C4158.27 927.452 4155.08 931.628 4155.08 939.342V951H4147.89V921.768ZM4179.55 936.384C4179.55 927.394 4184.08 921.304 4192.89 921.304C4195.85 921.304 4198.69 922.812 4199.97 924.436V909.936H4207.16V951H4199.97V947.984C4199.16 949.492 4196.49 951.464 4192.89 951.464C4184.08 951.464 4179.55 945.374 4179.55 936.384ZM4187.09 936.384C4187.09 942.184 4190.11 945.316 4193.88 945.316C4197.65 945.316 4200.61 942.184 4200.61 936.384C4200.61 930.584 4197.65 927.452 4193.88 927.452C4190.11 927.452 4187.09 930.584 4187.09 936.384ZM4231.39 951V910.4H4239.86L4249.43 935.746L4259 910.4H4267.46V951H4259.92V925.944L4252.15 947.288H4246.7L4238.93 925.944V951H4231.39ZM4281.84 930.816L4275.75 929.424C4276.68 924.61 4280.91 921.304 4286.89 921.304C4293.85 921.304 4299.18 924.204 4299.18 933.542V951H4293.27L4292.51 947.288C4290.48 949.782 4287.7 951.464 4283.52 951.464C4278.53 951.464 4274.65 948.39 4274.65 942.59C4274.65 936.79 4279.75 933.02 4287.12 933.02H4291.99V931.744C4291.99 928.496 4289.55 927.452 4286.89 927.452C4284.86 927.452 4282.77 928.09 4281.84 930.816ZM4282.19 942.474C4282.19 943.866 4283.17 945.316 4285.2 945.316C4288.51 945.316 4291.99 943.054 4291.99 939.284V938.704H4287.18C4284.1 938.704 4282.19 939.864 4282.19 942.474ZM4326.52 940.502L4332.96 943.112C4330.76 948.622 4326.17 951.464 4319.68 951.464C4310.17 951.464 4305.41 944.62 4305.41 936.384C4305.41 928.148 4310.17 921.304 4319.68 921.304C4326.17 921.304 4330.76 924.146 4332.96 929.656L4326.52 932.266C4325.01 929.192 4322.93 927.452 4319.68 927.452C4315.15 927.452 4312.95 931.222 4312.95 936.384C4312.95 941.546 4315.15 945.316 4319.68 945.316C4322.93 945.316 4325.01 943.576 4326.52 940.502ZM4338.77 909.936H4345.96V926.466C4347.81 923.508 4351 921.304 4355.24 921.304C4360.75 921.304 4364.34 924.146 4364.34 930.12V951H4357.15V932.672C4357.15 929.134 4355.76 927.452 4352.8 927.452C4349.5 927.452 4345.96 930.758 4345.96 938.646V951H4338.77V909.936ZM4370.61 913.358C4370.61 910.748 4372.58 908.718 4375.25 908.718C4377.92 908.718 4379.89 910.748 4379.89 913.358C4379.89 915.968 4377.92 917.998 4375.25 917.998C4372.58 917.998 4370.61 915.968 4370.61 913.358ZM4371.66 921.768H4378.85V951H4371.66V921.768ZM4386.12 921.768H4393.31V926.466C4395.45 923.392 4398.59 921.304 4402.36 921.304C4407.58 921.304 4411.35 924.262 4411.35 930.12V951H4404.15V932.266C4404.15 928.786 4402.41 927.452 4399.98 927.452C4396.5 927.452 4393.31 931.628 4393.31 939.342V951H4386.12V921.768ZM4445.45 935.746V938.704H4425.33C4425.5 941.952 4427.76 945.316 4432.23 945.316C4435.53 945.316 4437.56 943.808 4439.3 940.792L4445.1 942.938C4442.84 948.1 4438.9 951.464 4431.82 951.464C4421.79 951.464 4417.79 943.286 4417.79 936.384C4417.79 929.482 4421.79 921.304 4431.82 921.304C4441.57 921.304 4445.45 929.366 4445.45 935.746ZM4431.82 927.452C4428.17 927.452 4426.02 930.236 4425.5 933.02H4438.09C4437.45 930.12 4435.65 927.452 4431.82 927.452ZM4460.92 921.304C4464.86 921.304 4468.28 923.218 4470.08 926.06L4465.79 930.004C4464.46 928.264 4462.54 927.452 4460.92 927.452C4459.53 927.452 4458.25 928.264 4458.25 929.888C4458.25 931.164 4459.29 932.092 4461.03 932.73C4465.04 934.18 4471.59 935.456 4471.59 941.72C4471.59 946.998 4467.53 951.464 4461.21 951.464C4455.12 951.464 4451.06 947.172 4449.61 943.576L4455.35 940.502C4456.39 943.344 4458.37 945.316 4461.21 945.316C4463.41 945.316 4464.8 944.33 4464.8 942.184C4464.8 939.748 4461.03 939.226 4457.5 937.718C4454.31 936.384 4451.58 934.354 4451.58 929.83C4451.58 925.306 4455.23 921.304 4460.92 921.304ZM4493.58 910.4H4501.12V944.04H4518.34V951H4493.58V910.4ZM4528.57 930.816L4522.48 929.424C4523.4 924.61 4527.64 921.304 4533.61 921.304C4540.57 921.304 4545.91 924.204 4545.91 933.542V951H4539.99L4539.24 947.288C4537.21 949.782 4534.42 951.464 4530.25 951.464C4525.26 951.464 4521.37 948.39 4521.37 942.59C4521.37 936.79 4526.48 933.02 4533.84 933.02H4538.72V931.744C4538.72 928.496 4536.28 927.452 4533.61 927.452C4531.58 927.452 4529.49 928.09 4528.57 930.816ZM4528.91 942.474C4528.91 943.866 4529.9 945.316 4531.93 945.316C4535.24 945.316 4538.72 943.054 4538.72 939.284V938.704H4533.9C4530.83 938.704 4528.91 939.864 4528.91 942.474ZM4580.7 936.384C4580.7 945.374 4576.18 951.464 4567.36 951.464C4563.77 951.464 4561.1 949.492 4560.29 947.984V951H4553.09V909.936H4560.29V924.436C4561.56 922.812 4564.4 921.304 4567.36 921.304C4576.18 921.304 4580.7 927.394 4580.7 936.384ZM4573.16 936.384C4573.16 930.584 4570.15 927.452 4566.38 927.452C4562.61 927.452 4559.65 930.584 4559.65 936.384C4559.65 942.184 4562.61 945.316 4566.38 945.316C4570.15 945.316 4573.16 942.184 4573.16 936.384Z" fill="black"/>
<path d="M193.503 975.748L200.521 974.82C201.391 978.416 203.421 980.736 207.075 980.736C210.845 980.736 213.513 978.126 213.513 973.95C213.513 969.252 210.787 966.816 207.133 966.816C205.857 966.816 204.813 967.048 203.595 967.686L200.695 963.626L208.351 953.128H195.417V946.4H218.675V948.952L209.105 961.886C209.627 961.828 210.033 961.77 210.729 961.77C216.993 961.77 220.821 966.7 220.821 973.834C220.821 982.244 214.905 987.464 207.075 987.464C199.535 987.464 194.199 982.534 193.503 975.748ZM242.573 945.936C252.259 945.936 257.537 953.708 257.537 966.7C257.537 979.692 252.259 987.464 242.573 987.464C232.887 987.464 227.609 979.692 227.609 966.7C227.609 953.708 232.887 945.936 242.573 945.936ZM242.573 952.664C237.237 952.664 234.801 957.652 234.801 966.7C234.801 975.748 237.237 980.736 242.573 980.736C247.909 980.736 250.345 975.748 250.345 966.7C250.345 957.652 247.909 952.664 242.573 952.664ZM275.021 946.4H278.211V987H270.903V956.608L263.131 961.248V953.36L275.021 946.4ZM301.359 971.746V965.482H322.993V971.746H301.359ZM359.068 987H346.366V946.4H359.068C368.638 946.4 377.976 952.49 377.976 966.7C377.976 980.91 368.638 987 359.068 987ZM353.906 980.04H356.69C363.186 980.04 370.32 977.488 370.32 966.7C370.32 955.912 363.186 953.36 356.69 953.36H353.906V980.04ZM383.241 949.358C383.241 946.748 385.213 944.718 387.881 944.718C390.549 944.718 392.521 946.748 392.521 949.358C392.521 951.968 390.549 953.998 387.881 953.998C385.213 953.998 383.241 951.968 383.241 949.358ZM384.285 957.768H391.477V987H384.285V957.768ZM399.822 967.164C399.822 961.074 404.636 957.304 410.552 957.304C412.524 957.304 414.322 957.768 415.946 958.58L421.456 955.68L424.298 960.436L420.122 962.524C420.876 963.858 421.282 965.424 421.282 967.164C421.282 973.312 416.468 976.908 410.552 976.908C409.044 976.908 407.594 976.676 406.318 976.27C405.448 976.792 404.926 977.546 404.926 978.474C404.926 979.866 405.912 980.62 407.652 980.62H413.626C419.774 980.62 423.892 983.578 423.892 989.204C423.892 996.396 417.106 999.296 410.61 999.296C403.128 999.296 397.386 996.048 397.386 989.668C397.386 987.29 398.256 985.26 399.764 983.868C398.836 982.766 398.256 981.2 398.256 979.344C398.256 976.56 399.706 974.472 401.852 973.196C400.576 971.63 399.822 969.6 399.822 967.164ZM412.002 986.652H408.058C406.84 986.652 405.738 986.594 404.694 986.42C404.23 987.116 404.056 987.986 404.056 989.088C404.056 991.872 406.84 993.264 410.61 993.264C414.032 993.264 416.7 992.278 416.7 989.668C416.7 987.232 414.728 986.652 412.002 986.652ZM406.55 967.164C406.55 969.542 408.232 971.108 410.552 971.108C412.872 971.108 414.554 969.542 414.554 967.164C414.554 964.728 412.872 963.104 410.552 963.104C408.232 963.104 406.55 964.728 406.55 967.164ZM428.327 949.358C428.327 946.748 430.299 944.718 432.967 944.718C435.635 944.718 437.607 946.748 437.607 949.358C437.607 951.968 435.635 953.998 432.967 953.998C430.299 953.998 428.327 951.968 428.327 949.358ZM429.371 957.768H436.563V987H429.371V957.768ZM460.432 980.62L462.114 986.42C460.49 987.174 458.924 987.464 457.358 987.464C450.746 987.464 446.628 983.926 446.628 976.676V963.916H442.104V957.768H446.628V950.46L453.82 945.936V957.768H461.534V963.916H453.82V976.56C453.82 980.156 455.212 981.316 457.648 981.316C458.634 981.316 459.446 981.142 460.432 980.62ZM473.508 966.816L467.418 965.424C468.346 960.61 472.58 957.304 478.554 957.304C485.514 957.304 490.85 960.204 490.85 969.542V987H484.934L484.18 983.288C482.15 985.782 479.366 987.464 475.19 987.464C470.202 987.464 466.316 984.39 466.316 978.59C466.316 972.79 471.42 969.02 478.786 969.02H483.658V967.744C483.658 964.496 481.222 963.452 478.554 963.452C476.524 963.452 474.436 964.09 473.508 966.816ZM473.856 978.474C473.856 979.866 474.842 981.316 476.872 981.316C480.178 981.316 483.658 979.054 483.658 975.284V974.704H478.844C475.77 974.704 473.856 975.864 473.856 978.474ZM497.976 945.936H505.168V987H497.976V945.936ZM551.241 953.302L545.151 957.188C543.585 954.172 541.903 952.896 539.525 952.896C537.321 952.896 535.639 954.462 535.639 956.608C535.639 963.684 552.981 962.756 552.981 974.82C552.981 982.766 547.761 987.464 539.989 987.464C532.623 987.464 527.287 982.302 526.011 976.096L532.101 972.268C533.319 976.618 535.755 980.504 540.163 980.504C543.295 980.504 545.441 978.938 545.441 975.226C545.441 968.498 528.447 969.832 528.447 956.956C528.447 950.808 533.145 945.936 539.525 945.936C544.919 945.936 549.037 948.604 551.241 953.302ZM554.798 957.768H562.048L568.834 976.096L575.214 957.768H582.406L567.326 998.832H560.366L565.412 985.144L554.798 957.768ZM595.493 957.304C599.437 957.304 602.859 959.218 604.657 962.06L600.365 966.004C599.031 964.264 597.117 963.452 595.493 963.452C594.101 963.452 592.825 964.264 592.825 965.888C592.825 967.164 593.869 968.092 595.609 968.73C599.611 970.18 606.165 971.456 606.165 977.72C606.165 982.998 602.105 987.464 595.783 987.464C589.693 987.464 585.633 983.172 584.183 979.576L589.925 976.502C590.969 979.344 592.941 981.316 595.783 981.316C597.987 981.316 599.379 980.33 599.379 978.184C599.379 975.748 595.609 975.226 592.071 973.718C588.881 972.384 586.155 970.354 586.155 965.83C586.155 961.306 589.809 957.304 595.493 957.304ZM627.521 980.62L629.203 986.42C627.579 987.174 626.013 987.464 624.447 987.464C617.835 987.464 613.717 983.926 613.717 976.676V963.916H609.193V957.768H613.717V950.46L620.909 945.936V957.768H628.623V963.916H620.909V976.56C620.909 980.156 622.301 981.316 624.737 981.316C625.723 981.316 626.535 981.142 627.521 980.62ZM660.739 971.746V974.704H640.613C640.787 977.952 643.049 981.316 647.515 981.316C650.821 981.316 652.851 979.808 654.591 976.792L660.391 978.938C658.129 984.1 654.185 987.464 647.109 987.464C637.075 987.464 633.073 979.286 633.073 972.384C633.073 965.482 637.075 957.304 647.109 957.304C656.853 957.304 660.739 965.366 660.739 971.746ZM647.109 963.452C643.455 963.452 641.309 966.236 640.787 969.02H653.373C652.735 966.12 650.937 963.452 647.109 963.452ZM691.75 987H684.558V967.512C684.558 964.554 683.108 963.452 680.962 963.452C677.424 963.452 674.64 967.57 674.64 976.27V987H667.448V957.768H674.64V962.466C676.786 959.218 679.28 957.304 683.05 957.304C686.646 957.304 689.952 959.102 691.228 963.336C693.316 959.566 696.564 957.304 700.16 957.304C705.612 957.304 708.86 960.668 708.86 966.294V987H701.668V967.512C701.668 964.554 700.218 963.452 698.072 963.452C694.592 963.452 691.75 967.396 691.75 975.632V987ZM726.446 957.304C730.39 957.304 733.812 959.218 735.61 962.06L731.318 966.004C729.984 964.264 728.07 963.452 726.446 963.452C725.054 963.452 723.778 964.264 723.778 965.888C723.778 967.164 724.822 968.092 726.562 968.73C730.564 970.18 737.118 971.456 737.118 977.72C737.118 982.998 733.058 987.464 726.736 987.464C720.646 987.464 716.586 983.172 715.136 979.576L720.878 976.502C721.922 979.344 723.894 981.316 726.736 981.316C728.94 981.316 730.332 980.33 730.332 978.184C730.332 975.748 726.562 975.226 723.024 973.718C719.834 972.384 717.108 970.354 717.108 965.83C717.108 961.306 720.762 957.304 726.446 957.304ZM770.59 987.464C763.34 987.464 757.714 982.882 757.714 975.052C757.714 968.962 761.426 964.786 765.428 962.524C763.804 960.262 762.644 957.42 762.644 954.578C762.644 949.822 766.298 945.936 772.098 945.936C778.13 945.936 781.494 949.938 781.494 954.056C781.494 958.928 778.362 962.524 774.882 964.38L781.552 973.138C782.654 971.05 783.524 968.962 784.51 965.83L788.686 970.702C788.048 973.428 787.062 976.154 785.67 978.532L792.166 987H783.64L781.262 983.868C778.478 986.072 774.94 987.464 770.59 987.464ZM770.648 980.794C773.548 980.794 775.404 980.04 777.26 978.532L769.082 967.628C766.298 969.31 764.674 971.978 764.674 974.936C764.674 978.184 766.994 980.794 770.648 980.794ZM772.098 952.084C770.3 952.084 769.024 953.244 769.024 955.042C769.024 956.782 769.778 958.116 770.88 959.508C772.678 958.696 774.998 957.246 774.998 954.81C774.998 953.186 773.838 952.084 772.098 952.084ZM847.459 958.232L840.673 959.972C839.107 955.854 836.265 952.896 830.639 952.896C824.375 952.896 819.097 957.304 819.097 966.7C819.097 976.096 824.375 980.504 830.639 980.504C836.265 980.504 839.107 977.546 840.673 973.428L847.459 975.168C845.545 982.94 839.455 987.464 830.639 987.464C820.489 987.464 811.441 980.272 811.441 966.7C811.441 953.128 820.489 945.936 830.639 945.936C839.455 945.936 845.545 950.46 847.459 958.232ZM852.556 972.384C852.556 963.916 858.008 957.304 867.404 957.304C876.8 957.304 882.252 963.916 882.252 972.384C882.252 980.852 876.8 987.464 867.404 987.464C858.008 987.464 852.556 980.852 852.556 972.384ZM860.096 972.384C860.096 977.198 862.764 981.316 867.404 981.316C872.044 981.316 874.712 977.198 874.712 972.384C874.712 967.57 872.044 963.452 867.404 963.452C862.764 963.452 860.096 967.57 860.096 972.384ZM913.441 987H906.249V967.512C906.249 964.554 904.799 963.452 902.653 963.452C899.115 963.452 896.331 967.57 896.331 976.27V987H889.139V957.768H896.331V962.466C898.477 959.218 900.971 957.304 904.741 957.304C908.337 957.304 911.643 959.102 912.919 963.336C915.007 959.566 918.255 957.304 921.851 957.304C927.303 957.304 930.551 960.668 930.551 966.294V987H923.359V967.512C923.359 964.554 921.909 963.452 919.763 963.452C916.283 963.452 913.441 967.396 913.441 975.632V987ZM962.662 987H955.47V967.512C955.47 964.554 954.02 963.452 951.874 963.452C948.336 963.452 945.552 967.57 945.552 976.27V987H938.36V957.768H945.552V962.466C947.698 959.218 950.192 957.304 953.962 957.304C957.558 957.304 960.864 959.102 962.14 963.336C964.228 959.566 967.476 957.304 971.072 957.304C976.524 957.304 979.772 960.668 979.772 966.294V987H972.58V967.512C972.58 964.554 971.13 963.452 968.984 963.452C965.504 963.452 962.662 967.396 962.662 975.632V987ZM986.86 960.088L991.384 945.936H1000.84L992.196 960.088H986.86ZM1010.22 957.304C1014.16 957.304 1017.58 959.218 1019.38 962.06L1015.09 966.004C1013.75 964.264 1011.84 963.452 1010.22 963.452C1008.82 963.452 1007.55 964.264 1007.55 965.888C1007.55 967.164 1008.59 968.092 1010.33 968.73C1014.33 970.18 1020.89 971.456 1020.89 977.72C1020.89 982.998 1016.83 987.464 1010.51 987.464C1004.42 987.464 1000.36 983.172 998.905 979.576L1004.65 976.502C1005.69 979.344 1007.66 981.316 1010.51 981.316C1012.71 981.316 1014.1 980.33 1014.1 978.184C1014.1 975.748 1010.33 975.226 1006.79 973.718C1003.6 972.384 1000.88 970.354 1000.88 965.83C1000.88 961.306 1004.53 957.304 1010.22 957.304ZM1042.88 987V946.4H1051.34L1060.91 971.746L1070.48 946.4H1078.95V987H1071.41V961.944L1063.64 983.288H1058.19L1050.42 961.944V987H1042.88ZM1086.03 972.384C1086.03 963.916 1091.48 957.304 1100.88 957.304C1110.27 957.304 1115.72 963.916 1115.72 972.384C1115.72 980.852 1110.27 987.464 1100.88 987.464C1091.48 987.464 1086.03 980.852 1086.03 972.384ZM1093.57 972.384C1093.57 977.198 1096.24 981.316 1100.88 981.316C1105.52 981.316 1108.18 977.198 1108.18 972.384C1108.18 967.57 1105.52 963.452 1100.88 963.452C1096.24 963.452 1093.57 967.57 1093.57 972.384ZM1121.09 972.384C1121.09 963.394 1125.61 957.304 1134.43 957.304C1137.39 957.304 1140.23 958.812 1141.5 960.436V945.936H1148.7V987H1141.5V983.984C1140.69 985.492 1138.02 987.464 1134.43 987.464C1125.61 987.464 1121.09 981.374 1121.09 972.384ZM1128.63 972.384C1128.63 978.184 1131.64 981.316 1135.41 981.316C1139.18 981.316 1142.14 978.184 1142.14 972.384C1142.14 966.584 1139.18 963.452 1135.41 963.452C1131.64 963.452 1128.63 966.584 1128.63 972.384ZM1182.8 971.746V974.704H1162.67C1162.84 977.952 1165.11 981.316 1169.57 981.316C1172.88 981.316 1174.91 979.808 1176.65 976.792L1182.45 978.938C1180.19 984.1 1176.24 987.464 1169.17 987.464C1159.13 987.464 1155.13 979.286 1155.13 972.384C1155.13 965.482 1159.13 957.304 1169.17 957.304C1178.91 957.304 1182.8 965.366 1182.8 971.746ZM1169.17 963.452C1165.51 963.452 1163.37 966.236 1162.84 969.02H1175.43C1174.79 966.12 1172.99 963.452 1169.17 963.452ZM1189.16 945.936H1196.35V987H1189.16V945.936ZM1203.38 945.936H1210.57V987H1203.38V945.936ZM1217.16 949.358C1217.16 946.748 1219.13 944.718 1221.8 944.718C1224.47 944.718 1226.44 946.748 1226.44 949.358C1226.44 951.968 1224.47 953.998 1221.8 953.998C1219.13 953.998 1217.16 951.968 1217.16 949.358ZM1218.2 957.768H1225.4V987H1218.2V957.768ZM1232.66 957.768H1239.86V962.466C1242 959.392 1245.13 957.304 1248.9 957.304C1254.12 957.304 1257.89 960.262 1257.89 966.12V987H1250.7V968.266C1250.7 964.786 1248.96 963.452 1246.53 963.452C1243.05 963.452 1239.86 967.628 1239.86 975.342V987H1232.66V957.768ZM1266.59 967.164C1266.59 961.074 1271.41 957.304 1277.32 957.304C1279.3 957.304 1281.09 957.768 1282.72 958.58L1288.23 955.68L1291.07 960.436L1286.89 962.524C1287.65 963.858 1288.05 965.424 1288.05 967.164C1288.05 973.312 1283.24 976.908 1277.32 976.908C1275.82 976.908 1274.37 976.676 1273.09 976.27C1272.22 976.792 1271.7 977.546 1271.7 978.474C1271.7 979.866 1272.68 980.62 1274.42 980.62H1280.4C1286.55 980.62 1290.66 983.578 1290.66 989.204C1290.66 996.396 1283.88 999.296 1277.38 999.296C1269.9 999.296 1264.16 996.048 1264.16 989.668C1264.16 987.29 1265.03 985.26 1266.54 983.868C1265.61 982.766 1265.03 981.2 1265.03 979.344C1265.03 976.56 1266.48 974.472 1268.62 973.196C1267.35 971.63 1266.59 969.6 1266.59 967.164ZM1278.77 986.652H1274.83C1273.61 986.652 1272.51 986.594 1271.47 986.42C1271 987.116 1270.83 987.986 1270.83 989.088C1270.83 991.872 1273.61 993.264 1277.38 993.264C1280.8 993.264 1283.47 992.278 1283.47 989.668C1283.47 987.232 1281.5 986.652 1278.77 986.652ZM1273.32 967.164C1273.32 969.542 1275 971.108 1277.32 971.108C1279.64 971.108 1281.33 969.542 1281.33 967.164C1281.33 964.728 1279.64 963.104 1277.32 963.104C1275 963.104 1273.32 964.728 1273.32 967.164Z" fill="black"/>
<path d="M2419.22 939.4H2444.91V946.36H2426.76V955.64H2441.38V962.6H2426.76V980H2419.22V939.4ZM2446.91 965.384C2446.91 956.916 2452.36 950.304 2461.76 950.304C2471.15 950.304 2476.61 956.916 2476.61 965.384C2476.61 973.852 2471.15 980.464 2461.76 980.464C2452.36 980.464 2446.91 973.852 2446.91 965.384ZM2454.45 965.384C2454.45 970.198 2457.12 974.316 2461.76 974.316C2466.4 974.316 2469.07 970.198 2469.07 965.384C2469.07 960.57 2466.4 956.452 2461.76 956.452C2457.12 956.452 2454.45 960.57 2454.45 965.384ZM2478.8 950.768H2486.05L2492.84 969.096L2499.22 950.768H2506.41L2491.33 991.832H2484.37L2489.41 978.144L2478.8 950.768ZM2535.92 964.746V967.704H2515.79C2515.97 970.952 2518.23 974.316 2522.69 974.316C2526 974.316 2528.03 972.808 2529.77 969.792L2535.57 971.938C2533.31 977.1 2529.36 980.464 2522.29 980.464C2512.25 980.464 2508.25 972.286 2508.25 965.384C2508.25 958.482 2512.25 950.304 2522.29 950.304C2532.03 950.304 2535.92 958.366 2535.92 964.746ZM2522.29 956.452C2518.63 956.452 2516.49 959.236 2515.97 962.02H2528.55C2527.91 959.12 2526.12 956.452 2522.29 956.452ZM2549.59 980H2542.4V950.768H2549.59V955.524C2551.68 952.102 2554.93 950.304 2558.23 950.304C2559.51 950.304 2560.61 950.536 2561.77 950.884L2560.44 957.554C2559.57 957.032 2558.64 956.742 2557.42 956.742C2553.25 956.742 2549.59 960.164 2549.59 969.618V980ZM2581.84 939.4H2589.38V973.04H2606.6V980H2581.84V939.4ZM2637.87 964.746V967.704H2617.74C2617.92 970.952 2620.18 974.316 2624.65 974.316C2627.95 974.316 2629.98 972.808 2631.72 969.792L2637.52 971.938C2635.26 977.1 2631.32 980.464 2624.24 980.464C2614.21 980.464 2610.2 972.286 2610.2 965.384C2610.2 958.482 2614.21 950.304 2624.24 950.304C2633.98 950.304 2637.87 958.366 2637.87 964.746ZM2624.24 956.452C2620.59 956.452 2618.44 959.236 2617.92 962.02H2630.5C2629.87 959.12 2628.07 956.452 2624.24 956.452ZM2640.63 950.768H2647.88L2653.79 971.126L2659.71 950.768H2666.96L2657.04 980H2650.54L2640.63 950.768ZM2696.89 964.746V967.704H2676.76C2676.94 970.952 2679.2 974.316 2683.67 974.316C2686.97 974.316 2689 972.808 2690.74 969.792L2696.54 971.938C2694.28 977.1 2690.34 980.464 2683.26 980.464C2673.23 980.464 2669.22 972.286 2669.22 965.384C2669.22 958.482 2673.23 950.304 2683.26 950.304C2693 950.304 2696.89 958.366 2696.89 964.746ZM2683.26 956.452C2679.61 956.452 2677.46 959.236 2676.94 962.02H2689.52C2688.89 959.12 2687.09 956.452 2683.26 956.452ZM2703.26 938.936H2710.45V980H2703.26V938.936ZM2732.51 968.748L2739.53 967.82C2740.4 971.416 2742.43 973.736 2746.08 973.736C2749.85 973.736 2752.52 971.126 2752.52 966.95C2752.52 962.252 2749.79 959.816 2746.14 959.816C2744.86 959.816 2743.82 960.048 2742.6 960.686L2739.7 956.626L2747.36 946.128H2734.42V939.4H2757.68V941.952L2748.11 954.886C2748.63 954.828 2749.04 954.77 2749.74 954.77C2756 954.77 2759.83 959.7 2759.83 966.834C2759.83 975.244 2753.91 980.464 2746.08 980.464C2738.54 980.464 2733.21 975.534 2732.51 968.748Z" fill="black"/>
</g>
<g id="level3-hotspot-container"/>
<defs>
<clipPath id="clip0_1036_567">
<rect width="4828" height="1551" fill="white"/>
</clipPath>
</defs>
</svg>
